<?xml version="1.0" encoding="UTF-8"?>
<svg width="2914px" height="576px" viewBox="0 0 2914 576" version="1.1" xmlns="http://www.w3.org/2000/svg" xmlns:xlink="http://www.w3.org/1999/xlink">
    <!-- Generator: Sketch 58 (84663) - https://sketch.com -->
    <title>Slice</title>
    <desc>Created with Sketch.</desc>
    <defs>
        <path d="M933.165414,-2.84217094e-14 L933.165414,465 L0.834586466,465 L0.834586466,-2.84217094e-14 L933.165414,-2.84217094e-14 Z M435.398229,213.94308 C412.688143,248.913545 413.240004,289.57679 436.630845,304.766979 C460.021686,319.957169 497.39387,303.922088 520.103956,268.951623 C542.814041,233.981158 542.26218,193.317913 518.871339,178.127724 C495.480499,162.937534 458.108314,178.972615 435.398229,213.94308 Z" id="path-1"></path>
    </defs>
    <g id="Page-1" stroke="none" stroke-width="1" fill="none" fill-rule="evenodd">
        <g id="LogoSymbol" transform="translate(0.000000, 59.000000)">
            <g id="Logo-Copy">
                <mask id="mask-2" fill="white">
                    <use xlink:href="#path-1"></use>
                </mask>
                <g id="Mask"></g>
                <path d="M535.828776,124.811609 L535.828776,124.782141 C532.649295,127.490594 530.676928,131.347075 530.353087,135.498232 C530.029245,139.649163 531.354004,143.741611 534.062456,146.920489 C539.685333,153.514891 549.577011,154.309761 556.200804,148.686884 C588.318931,121.279045 621.879536,107.383322 655.908154,107.383322 C700.773447,107.383322 742.253363,131.347 764.689401,170.206489 C787.122424,209.065978 787.122424,256.936057 764.689401,295.794039 C742.256378,334.653528 700.776462,358.617206 655.908154,358.617206 C577.596811,358.617206 530.290459,293.14422 480.218226,223.812567 C453.804884,187.236717 426.944221,150.042556 394.747896,122.11403 C362.962058,94.5415765 325.975744,76 279.085213,76 C223.003409,76 171.163123,105.910698 143.104887,154.484682 C115.048912,203.05942 115.048912,262.941861 143.104887,311.514338 C171.160862,360.089076 223.006423,390 279.085213,390 C320.80102,390 361.217542,373.571801 399.171148,341.188391 L399.171148,341.217859 C405.76555,335.594982 406.56042,325.673912 400.937544,319.079511 C395.314667,312.485109 385.422989,311.690239 378.799196,317.313116 C346.681069,344.720955 313.120464,358.616678 279.091846,358.616678 C234.226553,358.616678 192.746637,334.653 170.310599,295.793511 C147.877576,256.934022 147.877576,209.063943 170.310599,170.205961 C192.743622,131.346472 234.223538,107.382794 279.091846,107.382794 C320.804042,107.382794 349.576563,126.645809 378.799196,154.485662 C404.43974,178.912927 431.380298,209.784984 454.781774,242.187433 C507.271702,314.87281 561.528176,390 655.914787,390 C711.996591,390 763.836877,360.089302 791.895113,311.515318 C819.951088,262.94058 819.951088,203.058139 791.895113,154.485662 C763.839138,105.910924 711.993577,76 655.914787,76 C614.198904,76 573.782383,92.428199 535.828776,124.811609 Z" id="infinity" fill="#B4DDE8" mask="url(#mask-2)"></path>
                <path d="M-623.836451,-257.72141 C-623.901057,-257.655068 -623.969286,-257.591137 -624.041115,-257.52989 L-620.148141,-252.964285 L-614.148141,-252.964285 L-614.148141,-265.987831 L-623.836451,-257.72141 Z" id="Custom-C" stroke="#1696B7" stroke-width="12" mask="url(#mask-2)"></path>
                <text id="e" font-family="SignPainter-HouseScript, SignPainter" font-size="383" font-style="condensed" font-weight="normal" letter-spacing="-0.1915" fill="#1696B7">
                    <tspan x="395.31575" y="307">e</tspan>
                </text>
                <text id="c-copy" font-family="STHeitiSC-Medium, Heiti SC" font-size="283" font-weight="bold" letter-spacing="-0.1415" fill="#1696B7">
                    <tspan x="559.02025" y="327">c</tspan>
                </text>
                <text id="c" font-family="STHeitiSC-Medium, Heiti SC" font-size="283" font-weight="bold" letter-spacing="-0.1415" fill="#1696B7">
                    <tspan x="183.02025" y="327">c</tspan>
                </text>
            </g>
        </g>
        <text id="Thinking-&amp;-Learning" font-family="SignPainter-HouseScriptSemibold, SignPainter" font-size="172" font-style="condensed" font-weight="500" letter-spacing="-0.086" fill="#B4DDE8">
            <tspan x="1255" y="346">Thinking &amp; Learning Together</tspan>
        </text>
        <text id="Connected-Educationa" font-family="STHeitiSC-Medium, Heiti SC" font-size="50" font-weight="bold" letter-spacing="-0.025" fill="#1696B7">
            <tspan x="861" y="269">Connected </tspan>
            <tspan x="861" y="319">Educational </tspan>
            <tspan x="861" y="369">Consulting</tspan>
        </text>
    </g>
</svg>