<?xml version="1.0" encoding="UTF-8"?>
<svg width="725px" height="334px" viewBox="0 0 725 334" version="1.1" xmlns="http://www.w3.org/2000/svg" xmlns:xlink="http://www.w3.org/1999/xlink">
    <!-- Generator: Sketch 58 (84663) - https://sketch.com -->
    <title>Slice</title>
    <desc>Created with Sketch.</desc>
    <defs>
        <path d="M813,76 L813,390 L122.062906,390 L122.062906,76 L813,76 Z M410.734071,213.4164 C390.77789,256.212567 396.693894,289.496147 426.976562,303.617187 C457.259231,317.738228 484.03125,313.13707 512.449219,273.207031 C540.867188,233.276992 531.982221,175.616529 501.699553,161.495489 C471.416885,147.374449 430.690251,170.620232 410.734071,213.4164 Z" id="path-1"></path>
    </defs>
    <g id="Page-1" stroke="none" stroke-width="1" fill="none" fill-rule="evenodd">
        <g id="LogoSymbol" transform="translate(-100.000000, -67.000000)">
            <mask id="mask-2" fill="white">
                <use xlink:href="#path-1"></use>
            </mask>
            <g id="Combined-Shape"></g>
            <path d="M535.828776,124.811609 L535.828776,124.782141 C532.649295,127.490594 530.676928,131.347075 530.353087,135.498232 C530.029245,139.649163 531.354004,143.741611 534.062456,146.920489 C539.685333,153.514891 549.577011,154.309761 556.200804,148.686884 C588.318931,121.279045 621.879536,107.383322 655.908154,107.383322 C700.773447,107.383322 742.253363,131.347 764.689401,170.206489 C787.122424,209.065978 787.122424,256.936057 764.689401,295.794039 C742.256378,334.653528 700.776462,358.617206 655.908154,358.617206 C577.596811,358.617206 530.290459,293.14422 480.218226,223.812567 C453.804884,187.236717 426.944221,150.042556 394.747896,122.11403 C362.962058,94.5415765 325.975744,76 279.085213,76 C223.003409,76 171.163123,105.910698 143.104887,154.484682 C115.048912,203.05942 115.048912,262.941861 143.104887,311.514338 C171.160862,360.089076 223.006423,390 279.085213,390 C320.80102,390 361.217542,373.571801 399.171148,341.188391 L399.171148,341.217859 C405.76555,335.594982 406.56042,325.673912 400.937544,319.079511 C395.314667,312.485109 385.422989,311.690239 378.799196,317.313116 C346.681069,344.720955 313.120464,358.616678 279.091846,358.616678 C234.226553,358.616678 192.746637,334.653 170.310599,295.793511 C147.877576,256.934022 147.877576,209.063943 170.310599,170.205961 C192.743622,131.346472 234.223538,107.382794 279.091846,107.382794 C320.804042,107.382794 349.576563,126.645809 378.799196,154.485662 C404.43974,178.912927 431.380298,209.784984 454.781774,242.187433 C507.271702,314.87281 561.528176,390 655.914787,390 C711.996591,390 763.836877,360.089302 791.895113,311.515318 C819.951088,262.94058 819.951088,203.058139 791.895113,154.485662 C763.839138,105.910924 711.993577,76 655.914787,76 C614.198904,76 573.782383,92.428199 535.828776,124.811609 Z" id="infinity" fill="#B4DDE8" fill-rule="evenodd" mask="url(#mask-2)"></path>
            <g id="Letter" stroke-width="1" fill-rule="evenodd" transform="translate(198.472250, 151.823000)" fill="#1696B7">
                <path d="M232.0795,89.684 C258.8895,111.515 284.5505,101.557 303.3175,78.577 C319.24264,59.23933 322.404918,36.147877 315.77733,26.7689933 L315.5735,26.489 C309.4455,18.063 302.5515,12.318 292.9765,6.573 C273.8265,-4.534 234.7605,15.382 209.8655,64.789 C184.9705,114.196 201.8225,162.071 250.4635,161.305 C279.9545,160.922 309.4455,143.304 325.5315,119.941 C332.334789,110.114026 333.543269,99.5410779 332.101574,96.3199067 L332.0425,96.195 C330.541765,92.8183469 327.570923,92.7494357 325.650158,95.6282398 L325.5315,95.812 C309.0625,121.09 281.1035,151.73 249.3145,150.198 C229.0155,149.049 219.8235,124.92 232.0795,89.684 Z M235.5265,81.258 C236.228667,79.5025833 237.25266,77.4253403 238.303472,75.3212784 L238.5905,74.747 C256.5915,38.362 288.3805,15.382 296.4235,21.893 C301.73188,26.06387 293.526641,45.6252503 281.470021,61.6242905 L281.1035,62.108 C269.9965,76.662 254.2935,93.131 235.5265,81.258 Z" id="e" fill-rule="nonzero"></path>
                <path d="M530.914,126.784 C522.801293,138.670059 512.188899,147.725969 499.0765,153.952 C485.964101,160.178031 471.767076,163.291 456.485,163.291 C432.712881,163.291 412.855913,155.461412 396.9135,139.802 C380.971087,124.142588 373,104.993113 373,82.353 C373,59.7128868 381.018253,40.3275807 397.055,24.1965 C413.091747,8.06541935 433.844873,0 459.315,0 C474.408409,0 488.322436,3.30163365 501.0575,9.905 C513.792564,16.5083664 523.744631,25.7529406 530.914,37.639 L512.519,49.242 C498.746264,31.318577 480.728778,22.357 458.466,22.357 C440.919912,22.357 426.204059,27.9697772 414.318,39.1955 C402.431941,50.4212228 396.489,64.3352503 396.489,80.938 C396.489,97.5407497 402.337608,111.784941 414.035,123.671 C425.732392,135.557059 440.542577,141.5 458.466,141.5 C479.974108,141.5 498.085926,132.444091 512.802,114.332 L530.914,126.784 Z" id="c" fill-rule="nonzero"></path>
                <path d="M157.914,126.784 C149.801293,138.670059 139.188899,147.725969 126.0765,153.952 C112.964101,160.178031 98.7670764,163.291 83.485,163.291 C59.7128811,163.291 39.855913,155.461412 23.9135,139.802 C7.97108696,124.142588 0,104.993113 0,82.353 C0,59.7128868 8.01825315,40.3275807 24.055,24.1965 C40.0917469,8.06541935 60.8448726,0 86.315,0 C101.408409,0 115.322436,3.30163365 128.0575,9.905 C140.792564,16.5083664 150.744631,25.7529406 157.914,37.639 L139.519,49.242 C125.746264,31.318577 107.728778,22.357 85.466,22.357 C67.9199123,22.357 53.2040594,27.9697772 41.318,39.1955 C29.4319406,50.4212228 23.489,64.3352503 23.489,80.938 C23.489,97.5407497 29.3376082,111.784941 41.035,123.671 C52.7323918,135.557059 67.5425771,141.5 85.466,141.5 C106.974108,141.5 125.085926,132.444091 139.802,114.332 L157.914,126.784 Z" id="c" fill-rule="nonzero"></path>
            </g>
        </g>
    </g>
</svg>