<?xml version="1.0" encoding="UTF-8"?>
<svg width="100px" height="116px" viewBox="0 0 100 116" version="1.1" xmlns="http://www.w3.org/2000/svg" xmlns:xlink="http://www.w3.org/1999/xlink">
    <!-- Generator: Sketch 58 (84663) - https://sketch.com -->
    <title>np_think_2512866_4593B3 Copy 5</title>
    <desc>Created with Sketch.</desc>
    <g id="New,-minimal" stroke="none" stroke-width="1" fill="none" fill-rule="evenodd">
        <g id="np_think_2512866_4593B3-Copy-5" transform="translate(0.000000, 0.500000)" fill-rule="nonzero">
            <path d="M49.5777025,0.032832902 C48.2471056,0.16028829 47.2273947,1.26660095 47.2121245,2.60240535 L46.9266237,12.4725759 C46.8909357,13.9154153 48.0329442,15.1083192 49.4757053,15.1440802 C50.9184665,15.1798413 52.1114487,14.0377598 52.1472097,12.5949986 L52.4327105,2.7248281 C52.4582013,1.97538687 52.162506,1.24635813 51.6169939,0.73147783 C51.0663787,0.216558376 50.3271437,-0.0383497888 49.5777025,0.0330156225 L49.5777025,0.032832902 Z M19.3961894,14.4299041 C18.3765437,14.5012799 17.4895009,15.1589459 17.1325433,16.1174585 C16.770574,17.0708289 17.0050879,18.1516599 17.7239313,18.8756246 L22.0472291,23.4029169 C22.5009764,23.9892148 23.1790391,24.3562872 23.9182872,24.4072663 C24.6575352,24.4633471 25.3814869,24.2033371 25.9167275,23.6935077 C26.4520464,23.1785883 26.7426373,22.4648298 26.7222509,21.7256078 C26.6967601,20.9863598 26.3653716,20.2929485 25.7994731,19.8138292 L21.5170264,15.286537 C20.9817075,14.6900459 20.1966097,14.3739524 19.3961633,14.4300346 L19.3961894,14.4299041 Z M79.9223589,14.4299041 C79.234103,14.465592 78.591762,14.7765771 78.1277825,15.2864065 L73.8453357,19.8136987 C73.2794373,20.2929354 72.9480475,20.9862945 72.922558,21.7254773 C72.9021651,22.4647253 73.1927625,23.1784969 73.7280814,23.6933772 C74.2634003,24.2031935 74.9873389,24.4632048 75.7265217,24.4071357 C76.4657697,24.3561541 77.1437803,23.9890843 77.5975797,23.4027863 L81.9208776,18.8754941 C82.680512,18.1107566 82.8946343,16.9534049 82.4510933,15.9643648 C82.0075523,14.9804018 81.0031638,14.3685622 79.922372,14.4297736 L79.9223589,14.4299041 Z M49.8230701,19.4873468 C33.6105401,19.4873468 20.5381926,32.8194184 20.5381926,49.1389704 C20.5381926,56.0878315 23.4696822,61.8845092 26.4520725,66.9215916 C31.1832286,74.915614 31.7542302,79.0298274 31.7542302,81.11506 C31.7542302,82.1601952 31.44833,82.4303866 31.5910869,83.8884963 C31.6624627,84.6175381 32.4628856,86.0246296 33.3856633,86.4580687 C34.3084411,86.8915079 34.8743135,86.8662122 35.4658059,86.8662122 L64.1790291,86.8662122 C64.7704171,86.8662122 65.3363286,86.8914179 66.2591716,86.4580687 C67.1820146,86.0247196 67.9823566,84.6175511 68.0537481,83.8884963 C68.196505,82.4303866 67.8906048,82.1602213 67.8906048,81.11506 C67.8906048,79.0298274 68.4616064,74.915614 73.1927625,66.9215916 C76.1752833,61.8845092 79.1066423,56.0878315 79.1066423,49.1389704 C79.1066423,32.8194184 66.0342949,19.4873468 49.8217649,19.4873468 L49.8230701,19.4873468 Z M49.8230701,24.7079329 C63.1903806,24.7079329 73.8873614,35.5875037 73.8873614,49.1389704 C73.8873614,54.6093615 71.5472337,59.4731205 68.707496,64.2708391 C63.6602334,72.8053226 62.6711934,78.015337 62.6711934,81.11506 C62.6711934,81.4770293 62.7017834,81.3342854 62.7119792,81.6452757 L36.9353356,81.6452757 C36.9455314,81.3342854 36.9761214,81.4770293 36.9761214,81.11506 C36.9761214,78.015337 35.9870683,72.8049311 30.9398188,64.2708391 C28.100081,59.4733815 25.7599533,54.609753 25.7599533,49.1389704 C25.7599533,35.5876342 36.4560205,24.7079329 49.8242447,24.7079329 L49.8230701,24.7079329 Z M2.63419277,39.0645445 C1.1913533,39.1002324 0.0493501041,40.2932225 0.0851111185,41.7360489 C0.120872133,43.1788753 1.3137891,44.3208916 2.75661551,44.2851305 L12.7083577,44.5706313 C14.1511971,44.6063193 15.344101,43.4643108 15.3798621,42.0215497 C15.4156231,40.5787885 14.2735416,39.3858063 12.8307804,39.3500453 L2.91975883,39.0645445 C2.82289216,39.0594466 2.731126,39.0594466 2.63425803,39.0645445 L2.63419277,39.0645445 Z M96.7274254,39.0645445 L86.8164038,39.3500453 C85.3735644,39.3857332 84.2315612,40.5787233 84.2673222,42.0215497 C84.3030832,43.4643761 85.4960001,44.6063924 86.9388266,44.5706313 L96.8905687,44.2851305 C98.3334082,44.2392468 99.4652312,43.0360662 99.4192901,41.5932659 C99.3733489,40.1504655 98.1702257,39.0186033 96.7274254,39.0645445 L96.7274254,39.0645445 Z M35.7927451,90.7405155 C35.099386,90.7762034 34.451968,91.0871885 33.9879885,91.6072111 C33.524048,92.1221305 33.2895263,92.8001933 33.325222,93.4935393 C33.3609178,94.1868854 33.671895,94.8343163 34.1919176,95.2982959 C34.7068371,95.7622364 35.3848998,95.9967581 36.0782459,95.9610624 L63.5672417,95.9610624 C64.2657039,95.9712582 64.9386896,95.7010511 65.4382997,95.2116211 C65.9328328,94.7170881 66.2132305,94.0492316 66.2132305,93.3507433 C66.2132305,92.6522549 65.9328328,91.9843854 65.4382997,91.4898654 C64.9386766,91.0004354 64.2657039,90.7302309 63.5672417,90.7404241 L36.0782459,90.7404241 C35.9813792,90.7353262 35.889613,90.7353262 35.7927451,90.7404241 L35.7927451,90.7405155 Z M38.4030381,100.202828 C37.709679,100.238516 37.0622611,100.549501 36.5982815,101.069523 C36.1343411,101.584443 35.8998193,102.262506 35.935515,102.955852 C35.9712108,103.649198 36.282188,104.296629 36.8022106,104.760608 C37.3171301,105.224549 37.9951928,105.45907 38.6885389,105.423375 L60.9569487,105.423375 C61.6554109,105.43357 62.3283966,105.163363 62.8280067,104.673933 C63.3225398,104.1794 63.6029374,103.511544 63.6029374,102.813055 C63.6029374,102.114567 63.3225398,101.446698 62.8280067,100.952178 C62.3283836,100.462748 61.6554109,100.192543 60.9569487,100.202736 L38.6885389,100.202736 C38.5916722,100.197638 38.4999061,100.197638 38.4030381,100.202736 L38.4030381,100.202828 Z M45.6220645,109.70586 C44.9287054,109.741548 44.2812875,110.052533 43.8173079,110.572556 C43.3533674,111.087476 43.1188457,111.765538 43.1545414,112.458884 C43.1902372,113.15223 43.5012144,113.799661 44.021237,114.263641 C44.5361565,114.727581 45.2142192,114.962103 45.9075653,114.926407 L53.7384443,114.926407 C54.4369065,114.936603 55.1098923,114.666396 55.6095024,114.176966 C56.1040354,113.682433 56.3844331,113.014577 56.3844331,112.316088 C56.3844331,111.6176 56.1040354,110.94973 55.6095024,110.45521 C55.1098792,109.96578 54.4369065,109.695576 53.7384443,109.705769 L45.9075653,109.705769 C45.8106986,109.700671 45.7189324,109.700671 45.6220645,109.705769 L45.6220645,109.70586 Z" id="Shape" fill="#4593B3"></path>
            <path d="M60.2642422,40.8591209 C59.5759862,40.8948089 58.9336453,41.205794 58.4696657,41.7156233 L46.1931966,55.1338346 L41.4213199,51.2183951 C40.8911041,50.7493515 40.1875519,50.5148428 39.4839604,50.570925 C38.775305,50.6270058 38.1176025,50.9685901 37.6690237,51.5191922 C37.2204448,52.0697944 37.0113473,52.7784498 37.0980221,53.4820021 C37.1846916,54.1906575 37.5517693,54.8278691 38.1176678,55.2562182 L44.7658231,60.7623703 C45.8364478,61.6494654 47.4168367,61.5424042 48.354976,60.5176554 L62.3448415,45.2631029 C63.0891796,44.4830691 63.2778124,43.3206534 62.813885,42.3468836 C62.3550477,41.3731268 61.3405051,40.7817519 60.2648034,40.8582334 L60.2642422,40.8591209 Z" id="Path" fill="#F39200"></path>
        </g>
    </g>
</svg>