<?xml version="1.0" encoding="UTF-8"?>
<svg width="480px" height="35px" viewBox="0 0 480 35" version="1.1" xmlns="http://www.w3.org/2000/svg" xmlns:xlink="http://www.w3.org/1999/xlink">
    <!-- Generator: Sketch 58 (84663) - https://sketch.com -->
    <title>Slice</title>
    <desc>Created with Sketch.</desc>
    <g id="New,-minimal" stroke="none" stroke-width="1" fill="none" fill-rule="evenodd">
        <g id="Group-Copy" fill-rule="nonzero">
            <path d="M16.8806723,25.7231856 C16.013441,26.9937801 14.8789986,27.9618377 13.4773109,28.6273872 C12.0756232,29.2929368 10.5579914,29.6257066 8.92436975,29.6257066 C6.38318057,29.6257066 4.26051272,28.7887401 2.55630252,27.1147822 C0.852092319,25.4408242 2.27373675e-13,23.3937859 2.27373675e-13,20.9736057 C2.27373675e-13,18.5534256 0.857134286,16.4811774 2.57142857,14.756799 C4.28572286,13.0324206 6.50418807,12.1702444 9.22689076,12.1702444 C10.8403442,12.1702444 12.3277243,12.523182 13.6890756,13.2290679 C15.050427,13.9349503 16.1142819,14.9231792 16.8806723,16.1937738 L14.9142857,17.4341099 C13.4420094,15.518134 11.5159783,14.5601603 9.13613445,14.5601603 C7.26049482,14.5601603 5.68740131,15.1601543 4.41680672,16.3601603 C3.14621213,17.5601663 2.51092437,19.0475464 2.51092437,20.8223452 C2.51092437,22.597144 3.1361282,24.1198179 4.38655462,25.3904124 C5.63698104,26.661007 7.22015849,27.2962948 9.13613445,27.2962948 C11.4353056,27.2962948 13.3714207,26.3282372 14.9445378,24.3920931 L16.8806723,25.7231856 Z" id="Path" fill="#1696B7"></path>
            <path d="M27.1915966,12.1702444 C29.5714405,12.1702444 31.593269,13.0273787 33.2571429,14.7416729 C34.9210167,16.4559672 35.7529412,18.5130895 35.7529412,20.9131015 C35.7529412,23.3131135 34.9311007,25.3651938 33.287395,27.069404 C31.6436893,28.7736142 29.6117768,29.6257066 27.1915966,29.6257066 C24.7714165,29.6257066 22.7344621,28.7736142 21.0806723,27.069404 C19.4268825,25.3651938 18.6,23.3131135 18.6,20.9131015 C18.6,18.5130895 19.4319245,16.4559672 21.0957983,14.7416729 C22.7596722,13.0273787 24.7915846,12.1702444 27.1915966,12.1702444 Z M27.1764706,14.6206645 C25.5327649,14.6206645 24.1159723,15.2509103 22.9260504,16.5114208 C21.7361285,17.7719313 21.1411765,19.2693954 21.1411765,21.0038578 C21.1411765,22.7383203 21.7159606,24.2105745 22.8655462,25.4206645 C24.0151318,26.6307546 25.4571342,27.2357906 27.1915966,27.2357906 C28.8655546,27.2357906 30.2924311,26.6257127 31.4722689,25.4055385 C32.6521067,24.1853643 33.2420168,22.7131101 33.2420168,20.9887318 C33.2420168,19.2643534 32.6420228,17.7719313 31.4420168,16.5114208 C30.2420108,15.2509103 28.8201763,14.6206645 27.1764706,14.6206645 Z" id="Combined-Shape" fill="#1696B7"></path>
            <path d="M52.6588235,29.0811687 L50.1781513,29.0811687 L50.1781513,21.2156225 C50.1781513,19.4004874 50.0924378,18.1652056 49.9210084,17.5097402 C49.749579,16.8542747 49.4974807,16.2996584 49.1647059,15.8458746 C48.8319311,15.3920908 48.4084059,15.0542791 47.8941176,14.8324292 C47.3798294,14.6105794 46.7546255,14.4996561 46.0184874,14.4996561 C45.2823493,14.4996561 44.5613481,14.6811669 43.8554622,15.044194 C43.1495763,15.407221 42.5445403,15.9114176 42.0403361,16.556799 C41.5361319,17.2021804 41.1882363,17.8878878 40.9966387,18.6139419 C40.8050411,19.3399959 40.7092437,20.7920822 40.7092437,22.9702444 L40.7092437,29.0811687 L38.1983193,29.0811687 L38.1983193,12.5937738 L40.7092437,12.5937738 L40.7092437,15.0744461 C42.3428653,13.1383019 44.2789804,12.1702444 46.5176471,12.1702444 C47.707569,12.1702444 48.7865546,12.4778043 49.7546218,13.0929335 C50.7226939,13.7080626 51.4487371,14.5551129 51.9327731,15.6341099 C52.4168091,16.7131069 52.6588235,18.3719139 52.6588235,20.6105805 L52.6588235,29.0811687 Z" id="Path" fill="#1696B7"></path>
            <path d="M70.1394958,29.0811687 L67.6588235,29.0811687 L67.6588235,21.2156225 C67.6588235,19.4004874 67.5731101,18.1652056 67.4016807,17.5097402 C67.2302512,16.8542747 66.9781529,16.2996584 66.6453782,15.8458746 C66.3126034,15.3920908 65.8890782,15.0542791 65.3747899,14.8324292 C64.8605016,14.6105794 64.2352978,14.4996561 63.4991597,14.4996561 C62.7630215,14.4996561 62.0420203,14.6811669 61.3361345,15.044194 C60.6302486,15.407221 60.0252126,15.9114176 59.5210084,16.556799 C59.0168042,17.2021804 58.6689085,17.8878878 58.4773109,18.6139419 C58.2857133,19.3399959 58.189916,20.7920822 58.189916,22.9702444 L58.189916,29.0811687 L55.6789916,29.0811687 L55.6789916,12.5937738 L58.189916,12.5937738 L58.189916,15.0744461 C59.8235376,13.1383019 61.7596527,12.1702444 63.9983193,12.1702444 C65.1882412,12.1702444 66.2672269,12.4778043 67.2352941,13.0929335 C68.2033662,13.7080626 68.9294093,14.5551129 69.4134454,15.6341099 C69.8974814,16.7131069 70.1394958,18.3719139 70.1394958,20.6105805 L70.1394958,29.0811687 Z" id="Path" fill="#1696B7"></path>
            <path d="M80.8739496,12.1702444 C83.2739616,12.1702444 85.2806642,12.982001 86.8941176,14.6055385 C88.5075711,16.229076 89.3445375,18.4525832 89.405042,21.2761267 L74.9445378,21.2761267 C75.0453787,23.0912619 75.6554566,24.5483901 76.7747899,25.6475553 C77.8941232,26.7467205 79.2302443,27.2962948 80.7831933,27.2962948 C83.4252233,27.2962948 85.4420098,25.9954675 86.8336134,23.3937738 L88.9512605,24.4828494 C88.0033566,26.23748 86.8840401,27.5332654 85.5932773,28.3702444 C84.3025146,29.2072233 82.7596728,29.6257066 80.9647059,29.6257066 C78.4840212,29.6257066 76.4369829,28.7736142 74.8235294,27.069404 C73.210076,25.3651938 72.4033613,23.3131135 72.4033613,20.9131015 C72.4033613,18.5130895 73.2151179,16.4559672 74.8386555,14.7416729 C76.462193,13.0273787 78.4739376,12.1702444 80.8739496,12.1702444 Z M80.8739496,14.5904124 C78.0504061,14.5904124 76.1747946,16.0828345 75.2470588,19.0677234 L86.6218487,19.0677234 C86.3193262,17.6559516 85.6336188,16.5568029 84.5647059,15.7702444 C83.495793,14.9836858 82.2655532,14.5904124 80.8739496,14.5904124 Z" id="Combined-Shape" fill="#1696B7"></path>
            <path d="M107.97479,25.7231856 C107.107559,26.9937801 105.973116,27.9618377 104.571429,28.6273872 C103.169741,29.2929368 101.652109,29.6257066 100.018487,29.6257066 C97.4772982,29.6257066 95.3546304,28.7887401 93.6504202,27.1147822 C91.94621,25.4408242 91.0941176,23.3937859 91.0941176,20.9736057 C91.0941176,18.5534256 91.9512519,16.4811774 93.6655462,14.756799 C95.3798405,13.0324206 97.5983057,12.1702444 100.321008,12.1702444 C101.934462,12.1702444 103.421842,12.523182 104.783193,13.2290679 C106.144545,13.9349503 107.2084,14.9231792 107.97479,16.1937738 L106.008403,17.4341099 C104.536127,15.518134 102.610096,14.5601603 100.230252,14.5601603 C98.3546125,14.5601603 96.781519,15.1601543 95.5109244,16.3601603 C94.2403298,17.5601663 93.605042,19.0475464 93.605042,20.8223452 C93.605042,22.597144 94.2302458,24.1198179 95.4806723,25.3904124 C96.7310987,26.661007 98.3142761,27.2962948 100.230252,27.2962948 C102.529423,27.2962948 104.465538,26.3282372 106.038655,24.3920931 L107.97479,25.7231856 Z" id="Path" fill="#1696B7"></path>
            <path d="M118.043697,14.771925 L114.776471,14.771925 L114.776471,26.3282276 C114.776471,26.7517591 114.836974,27.0088994 114.957983,27.0996561 C115.078992,27.1904129 115.38151,27.2357906 115.865546,27.2357906 L117.317647,27.2357906 L117.317647,29.3836898 L116.942789,29.4439253 C116.157398,29.5651133 115.546221,29.6257066 115.109244,29.6257066 C114.141172,29.6257066 113.425212,29.3887341 112.961345,28.9147822 C112.497477,28.4408302 112.265546,27.6895772 112.265546,26.6610007 L112.265546,14.771925 L109.421849,14.771925 L109.421849,12.5937738 L112.265546,12.5937738 L112.265546,6.39209311 L114.776471,6.39209311 L114.776471,12.5937738 L118.043697,12.5937738 L118.043697,14.771925 Z" id="Path" fill="#1696B7"></path>
            <path d="M127.447059,12.1702444 C129.847071,12.1702444 131.853773,12.982001 133.467227,14.6055385 C135.08068,16.229076 135.917647,18.4525832 135.978151,21.2761267 L121.517647,21.2761267 C121.618488,23.0912619 122.228566,24.5483901 123.347899,25.6475553 C124.467232,26.7467205 125.803354,27.2962948 127.356303,27.2962948 C129.998333,27.2962948 132.015119,25.9954675 133.406723,23.3937738 L135.52437,24.4828494 C134.576466,26.23748 133.457149,27.5332654 132.166387,28.3702444 C130.875624,29.2072233 129.332782,29.6257066 127.537815,29.6257066 C125.05713,29.6257066 123.010092,28.7736142 121.396639,27.069404 C119.783185,25.3651938 118.976471,23.3131135 118.976471,20.9131015 C118.976471,18.5130895 119.788227,16.4559672 121.411765,14.7416729 C123.035302,13.0273787 125.047047,12.1702444 127.447059,12.1702444 Z M127.447059,14.5904124 C124.623515,14.5904124 122.747904,16.0828345 121.820168,19.0677234 L133.194958,19.0677234 C132.892435,17.6559516 132.206728,16.5568029 131.137815,15.7702444 C130.068902,14.9836858 128.838662,14.5904124 127.447059,14.5904124 Z" id="Combined-Shape" fill="#1696B7"></path>
            <path d="M154.880672,6.39209311 L154.880672,29.0811687 L152.430252,29.0811687 L152.430252,26.6610007 C150.635285,28.6374811 148.563037,29.6257066 146.213445,29.6257066 C143.863854,29.6257066 141.862193,28.7685723 140.208403,27.054278 C138.554614,25.3399837 137.727731,23.2828614 137.727731,20.8828494 C137.727731,18.4828374 138.564698,16.4307571 140.238655,14.7265469 C141.912613,13.0223367 143.95461,12.1702444 146.364706,12.1702444 C148.774802,12.1702444 150.79663,13.1483859 152.430252,15.1046982 L152.430252,6.39209311 L154.880672,6.39209311 Z M146.42521,14.5904124 C144.660495,14.5904124 143.188241,15.2206582 142.008403,16.4811687 C140.828566,17.7416792 140.238655,19.2240174 140.238655,20.9282276 C140.238655,22.6324378 140.843691,24.1198179 142.053782,25.3904124 C143.263872,26.661007 144.715958,27.2962948 146.410084,27.2962948 C148.003369,27.2962948 149.425204,26.7013428 150.67563,25.5114208 C151.926057,24.3214989 152.551261,22.813951 152.551261,20.9887318 C152.551261,19.1635126 151.971434,17.6408387 150.811765,16.4206645 C149.652095,15.2004904 148.189925,14.5904124 146.42521,14.5904124 Z" id="Combined-Shape" fill="#1696B7"></path>
            <path d="M359.233613,25.7231856 C358.366382,26.9937801 357.23194,27.9618377 355.830252,28.6273872 C354.428564,29.2929368 352.910933,29.6257066 351.277311,29.6257066 C348.736122,29.6257066 346.613454,28.7887401 344.909244,27.1147822 C343.205033,25.4408242 342.352941,23.3937859 342.352941,20.9736057 C342.352941,18.5534256 343.210075,16.4811774 344.92437,14.756799 C346.638664,13.0324206 348.857129,12.1702444 351.579832,12.1702444 C353.193285,12.1702444 354.680665,12.523182 356.042017,13.2290679 C357.403368,13.9349503 358.467223,14.9231792 359.233613,16.1937738 L357.267227,17.4341099 C355.794951,15.518134 353.868919,14.5601603 351.489076,14.5601603 C349.613436,14.5601603 348.040342,15.1601543 346.769748,16.3601603 C345.499153,17.5601663 344.863866,19.0475464 344.863866,20.8223452 C344.863866,22.597144 345.489069,24.1198179 346.739496,25.3904124 C347.989922,26.661007 349.5731,27.2962948 351.489076,27.2962948 C353.788247,27.2962948 355.724362,26.3282372 357.297479,24.3920931 L359.233613,25.7231856 Z" id="Path" fill="#1696B7"></path>
            <path d="M369.544538,12.1702444 C371.924382,12.1702444 373.94621,13.0273787 375.610084,14.7416729 C377.273958,16.4559672 378.105882,18.5130895 378.105882,20.9131015 C378.105882,23.3131135 377.284042,25.3651938 375.640336,27.069404 C373.99663,28.7736142 371.964718,29.6257066 369.544538,29.6257066 C367.124358,29.6257066 365.087403,28.7736142 363.433613,27.069404 C361.779824,25.3651938 360.952941,23.3131135 360.952941,20.9131015 C360.952941,18.5130895 361.784866,16.4559672 363.448739,14.7416729 C365.112613,13.0273787 367.144526,12.1702444 369.544538,12.1702444 Z M369.529412,14.6206645 C367.885706,14.6206645 366.468914,15.2509103 365.278992,16.5114208 C364.08907,17.7719313 363.494118,19.2693954 363.494118,21.0038578 C363.494118,22.7383203 364.068902,24.2105745 365.218487,25.4206645 C366.368073,26.6307546 367.810075,27.2357906 369.544538,27.2357906 C371.218496,27.2357906 372.645372,26.6257127 373.82521,25.4055385 C375.005048,24.1853643 375.594958,22.7131101 375.594958,20.9887318 C375.594958,19.2643534 374.994964,17.7719313 373.794958,16.5114208 C372.594952,15.2509103 371.173117,14.6206645 369.529412,14.6206645 Z" id="Combined-Shape" fill="#1696B7"></path>
            <path d="M395.011765,29.0811687 L392.531092,29.0811687 L392.531092,21.2156225 C392.531092,19.4004874 392.445379,18.1652056 392.27395,17.5097402 C392.10252,16.8542747 391.850422,16.2996584 391.517647,15.8458746 C391.184872,15.3920908 390.761347,15.0542791 390.247059,14.8324292 C389.732771,14.6105794 389.107567,14.4996561 388.371429,14.4996561 C387.63529,14.4996561 386.914289,14.6811669 386.208403,15.044194 C385.502517,15.407221 384.897482,15.9114176 384.393277,16.556799 C383.889073,17.2021804 383.541177,17.8878878 383.34958,18.6139419 C383.157982,19.3399959 383.062185,20.7920822 383.062185,22.9702444 L383.062185,29.0811687 L380.551261,29.0811687 L380.551261,12.5937738 L383.062185,12.5937738 L383.062185,15.0744461 C384.695806,13.1383019 386.631922,12.1702444 388.870588,12.1702444 C390.06051,12.1702444 391.139496,12.4778043 392.107563,13.0929335 C393.075635,13.7080626 393.801678,14.5551129 394.285714,15.6341099 C394.76975,16.7131069 395.011765,18.3719139 395.011765,20.6105805 L395.011765,29.0811687 Z" id="Path" fill="#1696B7"></path>
            <path d="M406.623529,14.5299082 L405.020168,16.1937738 C403.830246,15.0845245 402.741181,14.5299082 401.752941,14.5299082 C401.127728,14.5299082 400.603363,14.7265449 400.179832,15.1198242 C399.7563,15.5131035 399.544538,15.9971323 399.544538,16.571925 C399.544538,17.1467178 399.78151,17.6509145 400.255462,18.0845301 C400.676753,18.4699662 401.388853,18.9350727 402.391782,19.4798608 L402.781513,19.6878914 C403.991603,20.3231887 404.924366,21.0240221 405.579832,21.7904124 C406.235297,22.5568028 406.563025,23.4946086 406.563025,24.6038578 C406.563025,26.0156296 406.073954,27.2055337 405.095798,28.1736057 C404.117642,29.1416778 402.912612,29.6257066 401.480672,29.6257066 C399.484024,29.6257066 397.820175,28.7786562 396.489076,27.0845301 L398.062185,25.3299082 C399.151266,26.6005028 400.260499,27.2357906 401.389916,27.2357906 C402.156306,27.2357906 402.811762,26.9836923 403.356303,26.4794881 C403.900843,25.9752839 404.173109,25.3853738 404.173109,24.7097402 C404.173109,24.0341065 403.926053,23.4694063 403.431933,23.0156225 C402.937813,22.5618387 402.090762,22.0324323 400.890756,21.4273872 C399.69075,20.8223422 398.783196,20.1517607 398.168067,19.4156225 C397.552938,18.6794844 397.245378,17.7114268 397.245378,16.5114208 C397.245378,15.3114148 397.684029,14.2878957 398.561345,13.4408326 C399.43866,12.5937696 400.598312,12.1702444 402.040336,12.1702444 C403.48236,12.1702444 405.010076,12.9567911 406.623529,14.5299082 Z" id="Path" fill="#1696B7"></path>
            <path d="M423.015126,29.0811687 L420.504202,29.0811687 L420.504202,26.6004965 C418.87058,28.5366406 416.934465,29.5046982 414.695798,29.5046982 C413.505876,29.5046982 412.426896,29.1971382 411.458824,28.5820091 C410.490751,27.96688 409.764708,27.1198296 409.280672,26.0408326 C408.796636,24.9618356 408.554622,23.3030287 408.554622,21.064362 L408.554622,12.5937738 L411.035294,12.5937738 L411.035294,20.45932 C411.035294,22.2744551 411.121008,23.5097369 411.292437,24.1652024 C411.463866,24.8206678 411.715965,25.3752841 412.048739,25.8290679 C412.381514,26.2828517 412.805039,26.6206634 413.319328,26.8425133 C413.833616,27.0643631 414.45882,27.1752864 415.194958,27.1752864 C415.931096,27.1752864 416.652097,26.9937756 417.357983,26.6307486 C418.063869,26.2677216 418.668905,25.7635249 419.173109,25.1181435 C419.677313,24.4727622 420.025209,23.7870547 420.216807,23.0610007 L420.256397,22.8943049 C420.421601,22.1238013 420.504202,20.7272773 420.504202,18.7046982 L420.504202,12.5937738 L423.015126,12.5937738 L423.015126,29.0811687 Z" id="Path" fill="#1696B7"></path>
            <polygon id="Path" fill="#1696B7" points="428.394958 29.0811687 425.914286 29.0811687 425.914286 6.39209311 428.394958 6.39209311"></polygon>
            <path d="M438.887395,14.771925 L435.620168,14.771925 L435.620168,26.3282276 C435.620168,26.7517591 435.680672,27.0088994 435.801681,27.0996561 C435.92269,27.1904129 436.225208,27.2357906 436.709244,27.2357906 L438.161345,27.2357906 L438.161345,29.3836898 L437.786486,29.4439253 C437.001095,29.5651133 436.389918,29.6257066 435.952941,29.6257066 C434.984869,29.6257066 434.26891,29.3887341 433.805042,28.9147822 C433.341174,28.4408302 433.109244,27.6895772 433.109244,26.6610007 L433.109244,14.771925 L430.265546,14.771925 L430.265546,12.5937738 L433.109244,12.5937738 L433.109244,6.39209311 L435.620168,6.39209311 L435.620168,12.5937738 L438.887395,12.5937738 L438.887395,14.771925 Z" id="Path" fill="#1696B7"></path>
            <path d="M441.514286,6.39209311 C442.058826,6.39209311 442.517645,6.57864587 442.890756,6.95175698 C443.263867,7.32486809 443.45042,7.77864506 443.45042,8.31310152 C443.45042,8.84755797 443.263867,9.30133495 442.890756,9.67444606 C442.517645,10.0475572 442.063868,10.2341099 441.529412,10.2341099 C440.994955,10.2341099 440.541178,10.0425152 440.168067,9.65932001 C439.794956,9.27612481 439.608403,8.8273898 439.608403,8.31310152 C439.608403,7.79881323 439.794956,7.35007822 440.168067,6.96688303 C440.541178,6.58368784 440.989913,6.39209311 441.514286,6.39209311 Z" id="Path" fill="#1696B7"></path>
            <polygon id="Path" fill="#1696B7" points="442.784874 29.0811687 440.27395 29.0811687 440.27395 12.5937738 442.784874 12.5937738"></polygon>
            <path d="M460.114286,29.0811687 L457.633613,29.0811687 L457.633613,21.2156225 C457.633613,19.4004874 457.5479,18.1652056 457.376471,17.5097402 C457.205041,16.8542747 456.952943,16.2996584 456.620168,15.8458746 C456.287393,15.3920908 455.863868,15.0542791 455.34958,14.8324292 C454.835292,14.6105794 454.210088,14.4996561 453.47395,14.4996561 C452.737811,14.4996561 452.01681,14.6811669 451.310924,15.044194 C450.605038,15.407221 450.000003,15.9114176 449.495798,16.556799 C448.991594,17.2021804 448.643698,17.8878878 448.452101,18.6139419 C448.260503,19.3399959 448.164706,20.7920822 448.164706,22.9702444 L448.164706,29.0811687 L445.653782,29.0811687 L445.653782,12.5937738 L448.164706,12.5937738 L448.164706,15.0744461 C449.798327,13.1383019 451.734443,12.1702444 453.973109,12.1702444 C455.163031,12.1702444 456.242017,12.4778043 457.210084,13.0929335 C458.178156,13.7080626 458.904199,14.5551129 459.388235,15.6341099 C459.872271,16.7131069 460.114286,18.3719139 460.114286,20.6105805 L460.114286,29.0811687 Z" id="Path" fill="#1696B7"></path>
            <path d="M471.015126,12.1702444 C473.344549,12.1702444 475.376462,13.1181341 477.110924,15.0139419 L477.110924,12.5937738 L479.621849,12.5937738 L479.621849,25.2088998 C479.621849,27.387062 479.435296,29.0004912 479.062185,30.049236 C478.689074,31.0979807 478.124374,31.9853668 477.368067,32.7114208 C476.611761,33.4374749 475.704207,33.9870492 474.645378,34.3601603 C473.586549,34.7332715 472.421855,34.9198242 471.151261,34.9198242 C466.855441,34.9198242 463.991604,33.1047163 462.559664,29.4744461 L465.221849,29.4744461 C466.391602,31.5719355 468.337802,32.6206645 471.060504,32.6206645 C472.310931,32.6206645 473.430247,32.3786502 474.418487,31.8946141 C475.406728,31.4105781 476.102519,30.7652064 476.505882,29.9584797 C476.890911,29.1884223 477.092173,28.0232901 477.109674,26.4630504 L477.110924,26.0862108 C476.324366,26.9736102 475.376476,27.6492337 474.267227,28.1131015 C473.157978,28.5769694 472.008409,28.8088998 470.818487,28.8088998 C468.438644,28.8088998 466.447067,27.9921013 464.843697,26.3584797 C463.29205,24.7775555 462.500654,22.9227827 462.46949,20.7941088 L462.468908,20.5803284 C462.448739,18.2609891 463.285706,16.2794963 464.979832,14.6357906 C466.673958,12.9920849 468.685703,12.1702444 471.015126,12.1702444 Z M471.211765,14.5904124 C469.436966,14.5904124 467.94958,15.2004904 466.74958,16.4206645 C465.549574,17.6408387 464.94958,19.0576313 464.94958,20.6710847 C464.94958,22.2845382 465.524364,23.650911 466.67395,24.7702444 C467.823535,25.8895777 469.295789,26.449236 471.090756,26.449236 C472.885723,26.449236 474.352935,25.8996616 475.492437,24.8004965 C476.631938,23.7013313 477.201681,22.2946227 477.201681,20.5803284 C477.201681,18.845866 476.621855,17.4139475 475.462185,16.2845301 C474.302515,15.1551127 472.885723,14.5904124 471.211765,14.5904124 Z" id="Combined-Shape" fill="#1696B7"></path>
            <path d="M172.570084,13.8865469 C173.102521,14.3221771 172.08605,16.5971351 170.682353,18.4848662 C169.714286,19.791757 168.165378,21.2438578 167.003697,21.2438578 C166.664874,21.2438578 166.32605,21.1470511 165.938824,20.9050343 C168.262185,16.2583116 171.844034,13.3057066 172.570084,13.8865469 Z M176.200336,15.8226813 C176.200336,15.1934377 176.006723,14.4673872 175.716303,14.031757 C175.038655,13.0636898 174.070588,12.289236 172.715294,11.5147822 C172.231261,11.224362 171.698824,11.1275553 171.021176,11.1275553 C168.213782,11.1275553 164.293109,13.6929335 161.776134,18.8236898 C160.759664,20.7598242 160.27563,22.6475553 160.27563,24.3900763 C160.27563,28.2623452 162.744202,31.2149503 167.245714,31.1665469 C171.021176,31.1181435 174.893445,28.8431856 176.926387,25.8905805 C177.797647,24.5836898 177.749244,23.1799923 177.604034,22.744362 C177.216807,21.7762948 176.587563,21.8731015 176.055126,22.6475553 L175.852508,22.9494381 C173.853903,25.8833738 170.704941,29.2304124 167.148908,29.2304124 C165.696807,29.2304124 164.825546,27.7299082 164.825546,25.6001603 C164.825546,24.7288998 164.970756,23.7124292 165.261176,22.744362 C166.374454,23.4704124 167.536134,23.809236 168.697815,23.809236 C172.957311,23.809236 176.200336,18.726883 176.200336,15.8226813 Z M198.877311,8.27175698 C200.135798,5.996799 200.765042,4.1090679 200.765042,2.80217715 C200.765042,2.12453009 200.571429,1.49528639 200.329412,0.914446056 C199.845378,-0.247234616 199.167731,-0.344041339 198.296471,0.866042694 L198.112733,1.13175337 C196.467102,3.5448932 193.463305,8.77909592 191.132773,13.1604965 C190.745546,11.9020091 189.680672,11.224362 188.034958,11.224362 C185.517983,11.224362 181.500504,13.49932 177.725042,18.9688998 C176.030924,21.4374713 175.159664,24.0996561 175.159664,26.1325973 C175.159664,28.9883956 176.708571,31.0697402 179.515966,31.0697402 C181.645714,31.0697402 183.533445,29.8112528 185.03395,28.2623452 C185.421176,30.3920931 187.018487,31.2149503 189.390252,31.2149503 C192.197647,31.2149503 195.198655,28.6979755 196.505546,26.084194 C197.113815,24.7740763 196.95317,23.4639587 196.723171,22.98457 L196.69916,22.9379755 C196.263529,22.066715 195.634286,22.0183116 195.150252,22.9379755 L194.971211,23.2801109 C193.33599,26.3567098 191.072269,29.3272192 189.438655,29.3272192 C189.003025,29.3272192 188.809412,28.9883956 188.809412,28.2623452 C188.809412,27.4878914 189.099832,26.4230175 189.680672,25.1645301 C191.95563,20.3725973 196.069916,13.5961267 198.877311,8.27175698 Z M186.570486,21.3893606 L186.244034,22.0183116 C184.065882,26.229404 181.742521,28.9399923 180.193613,28.9399923 C179.661176,28.9399923 179.467563,28.3107486 179.467563,27.4394881 C179.467563,25.8920931 180.19437,23.572466 181.559971,21.3607243 L181.694118,21.1470511 C184.259496,17.0811687 187.454118,14.1285637 188.809412,14.1769671 C189.689661,14.223296 188.929205,16.7971991 186.570486,21.3893606 L186.570486,21.3893606 Z M215.987899,26.0357906 C216.71395,24.6320931 216.520336,23.2283956 216.326723,22.7927654 C215.939496,21.8731015 215.116639,22.0183116 214.632605,22.8411687 L214.443201,23.1688374 C212.714869,26.1248799 210.364466,29.2304124 208.824202,29.2304124 C208.194958,29.2304124 207.904538,28.7463788 207.904538,27.8751183 C207.904538,25.9873872 209.792269,22.6959587 211.195966,20.4210007 L211.479685,19.946335 C213.002933,17.3717865 213.906555,15.389817 213.906555,13.8381435 C213.906555,12.7732696 213.664538,11.9988158 213.180504,11.3211687 C212.599664,10.4983116 211.82521,10.691925 211.147563,11.6115889 C209.405042,13.8381435 208.146555,17.1295721 205.290756,21.7762948 L204.931894,22.3340115 C202.576982,25.9593828 200.195912,28.9399923 198.998319,28.9399923 C197.95563,28.9399923 198.07313,27.2229124 198.896412,25.3337379 L198.949916,25.2129335 C200.644034,21.4858746 204.177479,15.8710847 204.177479,13.8865469 C204.177479,13.1604965 203.983866,12.3376393 203.451429,11.6599923 C202.870588,10.9339419 201.999328,10.8371351 201.370084,11.6599923 C198.369076,15.8710847 195.900504,20.7114208 194.83563,23.7608326 C194.4,24.9225133 194.206387,26.0357906 194.206387,27.1006645 C194.206387,29.1820091 195.174454,31.0213368 197.643025,31.0213368 C200.111597,31.0213368 202.289748,29.5208326 203.935462,27.6815049 C204.129076,29.8596561 205.581176,31.2633536 208.436975,31.2633536 C211.437983,31.2633536 214.584202,28.7947822 215.987899,26.0357906 Z M224.676303,11.224362 C221.868908,11.224362 218.045042,13.8381435 215.576471,18.8236898 C214.56,20.7598242 214.075966,22.6959587 214.075966,24.4384797 C214.075966,28.3107486 216.544538,31.1665469 220.997647,31.1181435 C224.773109,31.0697402 228.693782,28.6979755 230.533109,25.7937738 C231.40437,24.4384797 231.40437,23.1799923 231.162353,22.5507486 C230.871933,21.7278914 230.145882,21.9215049 229.710252,22.6475553 L229.515325,22.9357061 C227.5548,25.7920957 224.315261,29.2772288 220.804034,29.2304124 C219.497143,29.1820091 218.625882,27.8751183 218.625882,25.7453704 C218.625882,24.2932696 219.109916,22.3087318 220.077983,20.324194 C222.014118,16.4035217 225.160336,13.2573032 225.741176,13.7413368 C225.93479,13.9349503 225.595966,14.8062108 225.111933,15.774278 L224.955851,16.1346325 C224.211366,17.8785007 223.998655,18.7662108 223.998655,19.3561267 C223.998655,20.6630175 224.821513,21.5826813 225.692773,22.1151183 C226.66084,22.5991519 227.096471,22.5023452 227.435294,21.5826813 C227.628908,21.0502444 227.919328,20.324194 228.306555,19.5981435 L228.462536,19.2754989 C229.309828,17.5063676 229.959184,15.8282132 229.274622,14.3221771 C228.500168,12.8700763 226.467227,11.224362 224.676303,11.224362 Z M231.836597,18.6839492 L231.670588,18.9204965 C229.928067,21.3406645 229.056807,24.0512528 229.056807,26.1325973 C229.056807,28.9883956 230.605714,31.0697402 233.461513,31.0697402 C235.397647,31.0697402 237.575798,29.569236 238.979496,28.2139419 C239.366723,30.0048662 240.77042,31.2633536 243.190588,31.2633536 C246.143193,31.2633536 249.241008,28.6979755 250.499496,26.0357906 C251.177143,24.6320931 250.886723,23.3252024 250.693109,22.8895721 C250.209076,21.8731015 249.773445,21.9215049 249.241008,22.8895721 L249.069896,23.2211409 C247.474695,26.2627158 245.162388,29.3272192 243.481008,29.3272192 C242.996975,29.3272192 242.803361,28.8915889 242.803361,28.1655385 C242.803361,24.9814774 246.722738,19.8377282 248.056343,17.1321364 L248.127731,16.984362 C249.386218,14.4673872 248.950588,12.3376393 248.127731,11.3695721 C247.565628,10.7137846 246.776869,10.7379611 246.200143,11.6175762 L245.223529,13.2088998 C244.787899,11.9504124 243.723025,11.0791519 241.980504,11.0791519 C239.547198,11.0791519 235.655953,13.2895754 231.836597,18.6839492 Z M234.090756,28.9399923 C233.606723,28.9399923 233.413109,28.3591519 233.413109,27.4878914 C233.413109,25.9859205 234.186852,23.5281498 235.557797,21.3062258 L235.688067,21.0986477 C238.156639,17.1295721 241.496471,14.0801603 242.464538,14.0801603 C242.948571,14.0801603 243.045378,14.4189839 243.045378,14.9998242 C243.045378,16.2583116 242.174118,18.6300763 240.286387,21.9215049 L240.04571,22.331075 C237.764392,26.184171 235.633921,28.9399923 234.090756,28.9399923 Z M248.68437,25.6969671 C248.68437,29.036799 250.910924,31.1181435 253.476303,31.1181435 C257.542185,31.1181435 260.78521,26.9554545 261.462857,25.5033536 C261.995294,24.3900763 262.188908,23.6640259 261.946891,22.6475553 C261.616134,21.371781 260.547364,21.4336572 260.001354,22.5179903 L259.784224,22.9725221 C258.095399,26.4360824 255.686166,29.2788158 253.863529,29.2788158 C253.040672,29.2788158 252.556639,28.2623452 252.556639,26.8102444 C252.556639,25.7453704 252.847059,24.486883 253.427899,23.1799923 C255.122017,19.5013368 257.881008,14.709404 259.720336,11.5631856 C260.78521,11.4179755 262.043697,11.3211687 262.914958,11.4179755 C264.076639,11.5631856 264.415462,10.9823452 263.931429,10.1110847 C263.592605,9.53024438 262.769748,8.75579059 261.269244,8.56217715 C261.850084,7.20688303 262.043697,6.09360572 262.043697,5.22234522 C262.043697,4.64150488 261.850084,3.81864774 261.511261,3.2378074 C260.994483,2.34519247 260.432108,2.27334112 259.735622,3.24353763 L259.328898,3.8314566 C258.343171,5.27328098 257.38696,6.79962716 256.041681,9.14301748 C255.095126,9.2290679 253.957348,9.27687369 252.934304,9.25243962 L252.556639,9.23982421 C251.443361,9.19142085 250.959328,9.67545446 251.636975,10.691925 C252.024202,11.2727654 252.895462,11.8052024 254.395966,11.9988158 L254.06515,12.5992365 C252.252468,15.9161295 250.565186,19.4432528 249.652437,21.6794881 C248.97479,23.276799 248.68437,24.6320931 248.68437,25.6969671 Z M266.859832,9.04621076 C266.859832,10.546715 268.166723,11.9988158 269.71563,11.9988158 C270.925714,11.9988158 271.651765,10.8855385 271.651765,9.57864774 C271.651765,8.17495026 270.344874,6.43242925 268.98958,6.43242925 C267.876303,6.43242925 266.859832,7.69091664 266.859832,9.04621076 Z M270.441681,26.0357906 C271.070924,24.7773032 271.119328,23.5672192 270.683697,22.744362 C270.261681,21.9003284 269.657962,21.7831015 269.268595,22.5687049 L269.231597,22.6475553 C267.731092,25.9389839 265.214118,29.1820091 263.277983,29.1820091 C262.745546,29.1820091 262.551933,28.7463788 262.551933,27.971925 C262.551933,27.1974713 262.79395,26.1810007 263.22958,25.0677234 C264.052437,23.1315889 266.278992,19.5013368 267.198655,17.4199923 C268.429784,15.0524366 268.085974,13.009133 267.209464,12.0151177 L267.150252,11.9504124 C266.521008,11.224362 265.940168,11.3211687 265.214118,12.289236 C263.423193,14.8062108 260.325378,20.4210007 259.115294,23.809236 C258.728067,25.0677234 258.534454,26.084194 258.534454,27.0038578 C258.534454,29.4240259 259.841345,31.1181435 262.79395,31.1181435 C265.649748,31.1181435 268.98958,29.0852024 270.441681,26.0357906 Z M306.962017,22.7927654 C306.57479,22.1151183 305.848739,22.1151183 305.461513,22.7927654 L305.26969,23.1241596 C303.481861,26.1625719 300.907351,29.1820091 299.459496,29.1820091 C298.733445,29.1820091 298.394622,28.5527654 298.394622,27.5846982 C298.394622,26.8102444 298.636639,25.8421771 299.120672,24.7773032 L299.249331,24.5120869 C299.764968,23.4654776 300.742403,21.6452077 301.48894,20.4366694 L301.589244,20.2757906 C302.363697,19.0657066 303.041345,17.7588158 303.525378,16.8391519 C303.864202,16.1131015 303.961008,15.4354545 303.961008,14.9030175 C303.961008,13.0636898 302.557311,11.3695721 301.25042,11.3695721 C299.798319,11.3695721 297.232941,13.0152864 295.2,14.9030175 C295.248403,14.6125973 295.248403,14.2737738 295.248403,14.031757 C295.248403,13.2573032 295.006387,12.3860427 294.570756,11.6599923 C294.038319,10.9339419 293.360672,10.9339419 292.731429,11.756799 L292.465967,12.140671 C290.310409,15.2143479 287.408995,18.3183587 285.132101,18.9688998 C285.132101,15.9194881 284.502857,14.9514208 283.583193,13.9833536 L283.387905,13.7852457 C283.262678,13.6550832 283.11478,13.4936138 282.929098,13.2706103 L282.760336,13.0636898 C281.889076,11.9504124 280.582185,11.224362 279.130084,11.3695721 C276.136116,11.6071886 273.142148,14.3644041 271.293453,17.4881067 L271.191933,17.6620091 C269.885042,19.8885637 269.158992,22.211925 269.158992,24.3900763 C269.158992,25.9389839 269.594622,27.3910847 270.465882,28.6495721 C271.772773,30.4404965 273.563697,31.0213368 275.112605,31.0213368 C279.952941,31.0213368 283.53479,25.4549503 284.793277,20.7114208 L285.13849,20.7109368 C286.123886,20.7065805 286.685849,20.6630175 287.600672,20.2273872 C286.584202,22.211925 285.712941,24.2932696 285.277311,25.551757 C284.938487,26.4714208 284.744874,27.3910847 284.744874,28.0687318 C284.744874,29.1820091 285.132101,30.0048662 285.761345,30.6825133 C286.535798,31.5537738 287.213445,31.0697402 287.503866,30.4404965 C289.345554,26.2848908 291.694024,21.530362 294.099802,18.7838552 L294.280336,18.5816729 C296.990924,15.5806645 299.120672,14.3221771 299.556303,14.3221771 C299.701513,14.3221771 298.733445,16.306715 298.346218,16.984362 L297.866853,17.807101 C296.810812,19.605144 295.516822,21.7674942 294.76437,23.8576393 C294.328739,25.1161267 294.135126,26.1810007 294.135126,27.0522612 C294.135126,29.569236 295.587227,31.2149503 298.781849,31.2149503 C301.777762,31.2149503 305.287594,28.8789555 306.649131,26.1806766 L306.72,26.0357906 C307.494454,24.486883 307.252437,23.3736057 306.962017,22.7927654 Z M281.356639,18.2428494 C280.824202,17.6136057 280.582185,16.3551183 280.582185,15.4838578 C280.582185,14.709404 281.017815,14.3221771 281.308235,14.3221771 C281.647059,14.3221771 282.034286,14.6125973 282.034286,15.3386477 C282.034286,15.9678914 281.840672,17.1295721 281.356639,18.2428494 Z M272.88605,26.4714208 C272.88605,24.6320931 273.660504,21.9215049 274.918992,19.7433536 C275.741849,18.3880595 276.709916,17.0327654 277.726387,16.0162948 C278.162017,17.3715889 279.420504,18.9688998 280.727395,19.791757 L280.573204,20.1902339 C280.219869,21.0892412 279.742713,22.2079308 279.167698,23.3126406 L279.033277,23.5672192 C277.33916,26.8102444 275.257815,28.5527654 273.999328,28.6011687 C273.321681,28.6011687 272.88605,27.8751183 272.88605,26.4714208 Z M307.539454,18.6839492 L307.373445,18.9204965 C305.630924,21.3406645 304.759664,24.0512528 304.759664,26.1325973 C304.759664,28.9883956 306.308571,31.0697402 309.16437,31.0697402 C311.100504,31.0697402 313.278655,29.569236 314.682353,28.2139419 C315.06958,30.0048662 316.473277,31.2633536 318.893445,31.2633536 C321.84605,31.2633536 324.943866,28.6979755 326.202353,26.0357906 C326.88,24.6320931 326.58958,23.3252024 326.395966,22.8895721 C325.911933,21.8731015 325.476303,21.9215049 324.943866,22.8895721 L324.772753,23.2211409 C323.177553,26.2627158 320.865245,29.3272192 319.183866,29.3272192 C318.699832,29.3272192 318.506218,28.8915889 318.506218,28.1655385 C318.506218,24.9814774 322.425595,19.8377282 323.759201,17.1321364 L323.830588,16.984362 C325.089076,14.4673872 324.653445,12.3376393 323.830588,11.3695721 C323.268485,10.7137846 322.479726,10.7379611 321.903,11.6175762 L320.926387,13.2088998 C320.490756,11.9504124 319.425882,11.0791519 317.683361,11.0791519 C315.250055,11.0791519 311.35881,13.2895754 307.539454,18.6839492 Z M309.793613,28.9399923 C309.30958,28.9399923 309.115966,28.3591519 309.115966,27.4878914 C309.115966,25.9859205 309.889709,23.5281498 311.260654,21.3062258 L311.390924,21.0986477 C313.859496,17.1295721 317.199328,14.0801603 318.167395,14.0801603 C318.651429,14.0801603 318.748235,14.4189839 318.748235,14.9998242 C318.748235,16.2583116 317.876975,18.6300763 315.989244,21.9215049 L315.748567,22.331075 C313.467249,26.184171 311.336778,28.9399923 309.793613,28.9399923 Z M341.328403,4.44789143 C341.328403,3.23974353 340.837709,1.94237856 339.856322,1.02686267 L339.731092,0.914446056 C338.811429,0.0431855516 337.940168,0.33360572 337.020504,1.25326959 C332.343785,6.16859684 326.961324,14.9419821 325.001547,22.8883567 L324.919664,23.2283956 C324.677647,24.1964629 324.58084,25.1645301 324.58084,25.9873872 C324.58084,29.3272192 326.420168,31.0213368 329.372773,31.0213368 C333.438655,31.0213368 337.020504,27.0522612 337.746555,25.6001603 C338.375798,24.2932696 338.424202,23.1799923 338.230588,22.4539419 C337.900029,21.2261493 336.878404,21.1962031 336.24445,22.319156 L336.197647,22.4055385 C334.358319,25.8905805 331.550924,29.1336057 329.32437,29.1336057 C328.695126,29.1336057 328.404706,28.3107486 328.404706,27.1490679 C328.404706,25.4549503 329.03395,23.276799 330.002017,20.8082276 C334.261513,17.9524292 339.537479,12.2408326 341.037983,6.48083261 C341.28,5.65797547 341.328403,5.12553849 341.328403,4.44789143 Z M338.617815,5.65797547 C338.908235,5.85158891 338.278992,7.98133681 336.633277,10.7403284 C335.52,12.6280595 333.874286,14.8546141 331.792941,16.8875553 C332.131765,16.0646982 334.261513,12.4344461 335.52,10.3046982 L335.892598,9.66331506 C337.353027,7.1702225 338.439095,5.56861542 338.617815,5.65797547 Z" id="educatioal" fill="#F39200"></path>
        </g>
    </g>
</svg>