<?xml version="1.0" encoding="UTF-8"?>
<svg width="601px" height="115px" viewBox="0 0 601 115" version="1.1" xmlns="http://www.w3.org/2000/svg" xmlns:xlink="http://www.w3.org/1999/xlink">
    <!-- Generator: Sketch 58 (84663) - https://sketch.com -->
    <title>Slice</title>
    <desc>Created with Sketch.</desc>
    <g id="New,-minimal" stroke="none" stroke-width="1" fill="none" fill-rule="evenodd">
        <path d="M151.12,69.24 C149.399991,71.7600126 147.150014,73.6799934 144.37,75 C141.589986,76.3200066 138.580016,76.98 135.34,76.98 C130.299975,76.98 126.090017,75.3200166 122.71,72 C119.329983,68.6799834 117.64,64.620024 117.64,59.82 C117.64,55.019976 119.339983,50.9100171 122.74,47.49 C126.140017,44.0699829 130.539973,42.36 135.94,42.36 C139.140016,42.36 142.089986,43.059993 144.79,44.46 C147.490014,45.86 149.599992,47.8199874 151.12,50.34 L147.22,52.8 C144.299985,48.999981 140.480024,47.1 135.76,47.1 C132.039981,47.1 128.920013,48.2899881 126.4,50.67 C123.879987,53.0500119 122.62,55.9999824 122.62,59.52 C122.62,63.0400176 123.859988,66.0599874 126.34,68.58 C128.820012,71.1000126 131.959981,72.36 135.76,72.36 C140.320023,72.36 144.159984,70.4400192 147.28,66.6 L151.12,69.24 Z M190.15,60.42 L161.47,60.42 C161.670001,64.020018 162.879989,66.9099891 165.1,69.09 C167.320011,71.2700109 169.969985,72.36 173.05,72.36 C178.290026,72.36 182.289986,69.7800258 185.05,64.62 L189.25,66.78 C187.369991,70.2600174 185.150013,72.8299917 182.59,74.49 C180.029987,76.1500083 176.970018,76.98 173.41,76.98 C168.489975,76.98 164.430016,75.2900169 161.23,71.91 C158.029984,68.5299831 156.43,64.4600238 156.43,59.7 C156.43,54.9399762 158.039984,50.860017 161.26,47.46 C164.480016,44.059983 168.469976,42.36 173.23,42.36 C177.990024,42.36 181.969984,43.9699839 185.17,47.19 C188.370016,50.4100161 190.029999,54.819972 190.15,60.42 Z M184.63,56.04 C184.029997,53.239986 182.670011,51.0600078 180.55,49.5 C178.429989,47.9399922 175.990014,47.16 173.23,47.16 C167.629972,47.16 163.910009,50.1199704 162.07,56.04 L184.63,56.04 Z M211.18,60.12 L194.26,60.12 L194.26,55.68 L211.18,55.68 L211.18,60.12 Z M248.77,69.24 C247.049991,71.7600126 244.800014,73.6799934 242.02,75 C239.239986,76.3200066 236.230016,76.98 232.99,76.98 C227.949975,76.98 223.740017,75.3200166 220.36,72 C216.979983,68.6799834 215.29,64.620024 215.29,59.82 C215.29,55.019976 216.989983,50.9100171 220.39,47.49 C223.790017,44.0699829 228.189973,42.36 233.59,42.36 C236.790016,42.36 239.739986,43.059993 242.44,44.46 C245.140013,45.86 247.249992,47.8199874 248.77,50.34 L244.87,52.8 C241.949985,48.999981 238.130024,47.1 233.41,47.1 C229.689981,47.1 226.570013,48.2899881 224.05,50.67 C221.529987,53.0500119 220.27,55.9999824 220.27,59.52 C220.27,63.0400176 221.509988,66.0599874 223.99,68.58 C226.470012,71.1000126 229.609981,72.36 233.41,72.36 C237.970023,72.36 241.809984,70.4400192 244.93,66.6 L248.77,69.24 Z M271.12,42.36 C275.840024,42.36 279.849984,44.059983 283.15,47.46 C286.450016,50.860017 288.1,54.9399762 288.1,59.7 C288.1,64.4600238 286.470016,68.5299831 283.21,71.91 C279.949984,75.2900169 275.920024,76.98 271.12,76.98 C266.319976,76.98 262.280016,75.2900169 259,71.91 C255.719984,68.5299831 254.08,64.4600238 254.08,59.7 C254.08,54.9399762 255.729983,50.860017 259.03,47.46 C262.330017,44.059983 266.359976,42.36 271.12,42.36 Z M271.12,72.24 C274.440017,72.24 277.269988,71.0300121 279.61,68.61 C281.950012,66.1899879 283.12,63.2700171 283.12,59.85 C283.12,56.4299829 281.930012,53.4700125 279.55,50.97 C277.169988,48.4699875 274.350016,47.22 271.09,47.22 C267.829984,47.22 265.020012,48.4699875 262.66,50.97 C260.299988,53.4700125 259.12,56.4399828 259.12,59.88 C259.12,63.3200172 260.259989,66.239988 262.54,68.64 C264.820011,71.040012 267.679983,72.24 271.12,72.24 Z M323.53,75.9 L318.61,75.9 L318.61,60.3 C318.61,56.699982 318.440002,54.2500065 318.1,52.95 C317.759998,51.6499935 317.260003,50.5500045 316.6,49.65 C315.939997,48.7499955 315.100005,48.0800022 314.08,47.64 C313.059995,47.1999978 311.820007,46.98 310.36,46.98 C308.899993,46.98 307.470007,47.3399964 306.07,48.06 C304.669993,48.7800036 303.470005,49.7799936 302.47,51.06 C301.469995,52.3400064 300.780002,53.6999928 300.4,55.14 C300.019998,56.5800072 299.83,59.4599784 299.83,63.78 L299.83,75.9 L294.85,75.9 L294.85,43.2 L299.83,43.2 L299.83,48.12 C303.070016,44.2799808 306.909978,42.36 311.35,42.36 C313.710012,42.36 315.85,42.9699939 317.77,44.19 C319.69001,45.4100061 321.129995,47.0899893 322.09,49.23 C323.050005,51.3700107 323.53,54.6599778 323.53,59.1 L323.53,75.9 Z M348.46,47.04 L345.28,50.34 C342.919988,48.139989 340.76001,47.04 338.8,47.04 C337.559994,47.04 336.520004,47.4299961 335.68,48.21 C334.839996,48.9900039 334.42,49.9499943 334.42,51.09 C334.42,52.2300057 334.889995,53.2299957 335.83,54.09 C336.770005,54.9500043 338.439988,56.0099937 340.84,57.27 C343.240012,58.5300063 345.089993,59.9199924 346.39,61.44 C347.690006,62.9600076 348.34,64.819989 348.34,67.02 C348.34,69.820014 347.37001,72.1799904 345.43,74.1 C343.48999,76.0200096 341.100014,76.98 338.26,76.98 C334.29998,76.98 331.000013,75.3000168 328.36,71.94 L331.48,68.46 C333.640011,70.9800126 335.839989,72.24 338.08,72.24 C339.600008,72.24 340.899995,71.740005 341.98,70.74 C343.060005,69.739995 343.6,68.5700067 343.6,67.23 C343.6,65.8899933 343.110005,64.7700045 342.13,63.87 C341.20444,63.0199958 339.654516,62.0362086 337.480187,60.918612 L337.09,60.72 C334.709988,59.519994 332.910006,58.1900073 331.69,56.73 C330.469994,55.2699927 329.86,53.3500119 329.86,50.97 C329.86,48.5899881 330.729991,46.5600084 332.47,44.88 C334.210009,43.1999916 336.509986,42.36 339.37,42.36 C342.230014,42.36 345.259984,43.9199844 348.46,47.04 Z M382.87,75.9 L377.89,75.9 L377.89,70.98 C374.649984,74.8200192 370.810022,76.74 366.37,76.74 C364.009988,76.74 361.87001,76.1300061 359.95,74.91 C358.02999,73.6899939 356.590005,72.0100107 355.63,69.87 C354.669995,67.7299893 354.19,64.4400222 354.19,60 L354.19,43.2 L359.11,43.2 L359.11,58.8 C359.11,62.400018 359.279998,64.8499935 359.62,66.15 C359.960002,67.4500065 360.459997,68.5499955 361.12,69.45 C361.780003,70.3500045 362.619995,71.0199978 363.64,71.46 C364.660005,71.9000022 365.899993,72.12 367.36,72.12 C368.820007,72.12 370.249993,71.7600036 371.65,71.04 C373.050007,70.3199964 374.249995,69.3200064 375.25,68.04 C376.250005,66.7599936 376.939998,65.4000072 377.32,63.96 L377.398521,63.6293867 C377.726175,62.1012211 377.89,59.3314486 377.89,55.32 L377.89,43.2 L382.87,43.2 L382.87,75.9 Z M395.44,75.9 L390.52,75.9 L390.52,30.9 L395.44,30.9 L395.44,75.9 Z M418.15,47.52 L411.67,47.52 L411.67,70.44 C411.67,71.2800042 411.789999,71.7899991 412.03,71.97 C412.250001,72.1350008 412.772496,72.2243751 413.597499,72.238125 L416.71,72.24 L416.71,76.5 L415.966531,76.6194671 C414.408838,76.8598234 413.196671,76.98 412.33,76.98 C410.40999,76.98 408.990005,76.5100047 408.07,75.57 C407.149995,74.6299953 406.69,73.1400102 406.69,71.1 L406.69,47.52 L401.05,47.52 L401.05,43.2 L406.69,43.2 L406.69,30.9 L411.67,30.9 L411.67,43.2 L418.15,43.2 L418.15,47.52 Z M425.26,30.9 C426.340005,30.9 427.249996,31.2699963 427.99,32.01 C428.730004,32.7500037 429.1,33.6499947 429.1,34.71 C429.1,35.7700053 428.730004,36.6699963 427.99,37.41 C427.249996,38.1500037 426.350005,38.52 425.29,38.52 C424.229995,38.52 423.330004,38.1400038 422.59,37.38 C421.849996,36.6199962 421.48,35.7300051 421.48,34.71 C421.48,33.6899949 421.849996,32.8000038 422.59,32.04 C423.330004,31.2799962 424.219995,30.9 425.26,30.9 Z M427.78,75.9 L422.8,75.9 L422.8,43.2 L427.78,43.2 L427.78,75.9 Z M464.05,75.9 L459.13,75.9 L459.13,60.3 C459.13,56.699982 458.960002,54.2500065 458.62,52.95 C458.279998,51.6499935 457.780003,50.5500045 457.12,49.65 C456.459997,48.7499955 455.620005,48.0800022 454.6,47.64 C453.579995,47.1999978 452.340007,46.98 450.88,46.98 C449.419993,46.98 447.990007,47.3399964 446.59,48.06 C445.189993,48.7800036 443.990005,49.7799936 442.99,51.06 C441.989995,52.3400064 441.300002,53.6999928 440.92,55.14 C440.539998,56.5800072 440.35,59.4599784 440.35,63.78 L440.35,75.9 L435.37,75.9 L435.37,43.2 L440.35,43.2 L440.35,48.12 C443.590016,44.2799808 447.429978,42.36 451.87,42.36 C454.230012,42.36 456.37,42.9699939 458.29,44.19 C460.21001,45.4100061 461.649995,47.0899893 462.61,49.23 C463.570005,51.3700107 464.05,54.6599778 464.05,59.1 L464.05,75.9 Z M504.64,43.2 L504.64,68.22 C504.64,72.5400216 504.270004,75.7399896 503.53,77.82 C502.789996,79.9000104 501.670007,81.6599928 500.17,83.1 C498.669993,84.5400072 496.870011,85.6299963 494.77,86.37 C492.669989,87.1100037 490.360013,87.48 487.84,87.48 C479.319957,87.48 473.640014,83.880036 470.8,76.68 L476.08,76.68 C478.400012,80.8400208 482.259973,82.92 487.66,82.92 C490.140012,82.92 492.35999,82.4400048 494.32,81.48 C496.28001,80.5199952 497.659996,79.240008 498.46,77.64 C499.22364,76.1127196 499.62281,73.8018739 499.657521,70.7073987 L499.66,69.96 C498.099992,71.7200088 496.220011,73.0599954 494.02,73.98 C491.819989,74.9000046 489.540012,75.36 487.18,75.36 C482.459976,75.36 478.510016,73.7400162 475.33,70.5 C472.252565,67.3645005 470.682964,63.6858677 470.621155,59.4639978 L470.62,59.04 C470.58,54.439977 472.239983,50.5100163 475.6,47.25 C478.960017,43.9899837 482.949977,42.36 487.57,42.36 C492.190023,42.36 496.219983,44.2399812 499.66,48 L499.66,43.2 L504.64,43.2 Z M499.84,59.04 C499.84,55.5999828 498.690012,52.7600112 496.39,50.52 C494.089988,48.2799888 491.280017,47.16 487.96,47.16 C484.439982,47.16 481.490012,48.3699879 479.11,50.79 C476.729988,53.2100121 475.54,56.019984 475.54,59.22 C475.54,62.420016 476.679989,65.1299889 478.96,67.35 C481.240011,69.5700111 484.159982,70.68 487.72,70.68 C491.280018,70.68 494.189989,69.5900109 496.45,67.41 C498.710011,65.2299891 499.84,62.440017 499.84,59.04 Z M517.21,65.64 C518.330006,65.64 519.279996,66.0299961 520.06,66.81 C520.840004,67.5900039 521.23,68.5499943 521.23,69.69 C521.23,70.8300057 520.840004,71.7899961 520.06,72.57 C519.279996,73.3500039 518.340005,73.74 517.24,73.74 C516.139995,73.74 515.19,73.340004 514.39,72.54 C513.589996,71.739996 513.19,70.7800056 513.19,69.66 C513.19,68.5399944 513.589996,67.5900039 514.39,66.81 C515.19,66.0299961 516.129995,65.64 517.21,65.64 Z M545.68,42.36 C548.880016,42.36 551.829986,43.059993 554.53,44.46 C557.230014,45.86 559.339992,47.8199874 560.86,50.34 L556.96,52.8 C554.039985,48.999981 550.220024,47.1 545.5,47.1 C541.779981,47.1 538.660013,48.2899881 536.14,50.67 C533.619987,53.0500119 532.36,55.9999824 532.36,59.52 C532.36,63.0400176 533.599988,66.0599874 536.08,68.58 C538.560012,71.1000126 541.699981,72.36 545.5,72.36 C550.060023,72.36 553.899984,70.4400192 557.02,66.6 L560.86,69.24 C559.139991,71.7600126 556.890014,73.6799934 554.11,75 C551.329986,76.3200066 548.320016,76.98 545.08,76.98 C540.039975,76.98 535.830017,75.3200166 532.45,72 C529.069983,68.6799834 527.38,64.620024 527.38,59.82 C527.38,55.019976 529.079983,50.9100171 532.48,47.49 C535.880017,44.0699829 540.279973,42.36 545.68,42.36 Z M583.21,42.36 C587.930024,42.36 591.939983,44.059983 595.24,47.46 C598.540016,50.860017 600.19,54.9399762 600.19,59.7 C600.19,64.4600238 598.560016,68.5299831 595.3,71.91 C592.039984,75.2900169 588.010024,76.98 583.21,76.98 C578.409976,76.98 574.370016,75.2900169 571.09,71.91 C567.809984,68.5299831 566.17,64.4600238 566.17,59.7 C566.17,54.9399762 567.819984,50.860017 571.12,47.46 C574.420016,44.059983 578.449976,42.36 583.21,42.36 Z M583.18,47.22 C579.919984,47.22 577.110012,48.4699875 574.75,50.97 C572.389988,53.4700125 571.21,56.4399828 571.21,59.88 C571.21,63.3200172 572.349989,66.239988 574.63,68.64 C576.910011,71.040012 579.769983,72.24 583.21,72.24 C586.530017,72.24 589.359988,71.0300121 591.7,68.61 C594.040012,66.1899879 595.21,63.2700171 595.21,59.85 C595.21,56.4299829 594.020012,53.4700125 591.64,50.97 C589.259988,48.4699875 586.440016,47.22 583.18,47.22 Z" id="ce-consulting.co" fill="#1696B7" fill-rule="nonzero"></path>
        <g id="np_think_2512866_4593B3" fill-rule="nonzero">
            <path d="M49.5777025,0.032832902 C48.2471056,0.16028829 47.2273947,1.26660095 47.2121245,2.60240535 L46.9266237,12.4725759 C46.8909357,13.9154153 48.0329442,15.1083192 49.4757053,15.1440802 C50.9184665,15.1798413 52.1114487,14.0377598 52.1472097,12.5949986 L52.4327105,2.7248281 C52.4582013,1.97538687 52.162506,1.24635813 51.6169939,0.73147783 C51.0663787,0.216558376 50.3271437,-0.0383497888 49.5777025,0.0330156225 L49.5777025,0.032832902 Z M19.3961894,14.4299041 C18.3765437,14.5012799 17.4895009,15.1589459 17.1325433,16.1174585 C16.770574,17.0708289 17.0050879,18.1516599 17.7239313,18.8756246 L22.0472291,23.4029169 C22.5009764,23.9892148 23.1790391,24.3562872 23.9182872,24.4072663 C24.6575352,24.4633471 25.3814869,24.2033371 25.9167275,23.6935077 C26.4520464,23.1785883 26.7426373,22.4648298 26.7222509,21.7256078 C26.6967601,20.9863598 26.3653716,20.2929485 25.7994731,19.8138292 L21.5170264,15.286537 C20.9817075,14.6900459 20.1966097,14.3739524 19.3961633,14.4300346 L19.3961894,14.4299041 Z M79.9223589,14.4299041 C79.234103,14.465592 78.591762,14.7765771 78.1277825,15.2864065 L73.8453357,19.8136987 C73.2794373,20.2929354 72.9480475,20.9862945 72.922558,21.7254773 C72.9021651,22.4647253 73.1927625,23.1784969 73.7280814,23.6933772 C74.2634003,24.2031935 74.9873389,24.4632048 75.7265217,24.4071357 C76.4657697,24.3561541 77.1437803,23.9890843 77.5975797,23.4027863 L81.9208776,18.8754941 C82.680512,18.1107566 82.8946343,16.9534049 82.4510933,15.9643648 C82.0075523,14.9804018 81.0031638,14.3685622 79.922372,14.4297736 L79.9223589,14.4299041 Z M49.8230701,19.4873468 C33.6105401,19.4873468 20.5381926,32.8194184 20.5381926,49.1389704 C20.5381926,56.0878315 23.4696822,61.8845092 26.4520725,66.9215916 C31.1832286,74.915614 31.7542302,79.0298274 31.7542302,81.11506 C31.7542302,82.1601952 31.44833,82.4303866 31.5910869,83.8884963 C31.6624627,84.6175381 32.4628856,86.0246296 33.3856633,86.4580687 C34.3084411,86.8915079 34.8743135,86.8662122 35.4658059,86.8662122 L64.1790291,86.8662122 C64.7704171,86.8662122 65.3363286,86.8914179 66.2591716,86.4580687 C67.1820146,86.0247196 67.9823566,84.6175511 68.0537481,83.8884963 C68.196505,82.4303866 67.8906048,82.1602213 67.8906048,81.11506 C67.8906048,79.0298274 68.4616064,74.915614 73.1927625,66.9215916 C76.1752833,61.8845092 79.1066423,56.0878315 79.1066423,49.1389704 C79.1066423,32.8194184 66.0342949,19.4873468 49.8217649,19.4873468 L49.8230701,19.4873468 Z M49.8230701,24.7079329 C63.1903806,24.7079329 73.8873614,35.5875037 73.8873614,49.1389704 C73.8873614,54.6093615 71.5472337,59.4731205 68.707496,64.2708391 C63.6602334,72.8053226 62.6711934,78.015337 62.6711934,81.11506 C62.6711934,81.4770293 62.7017834,81.3342854 62.7119792,81.6452757 L36.9353356,81.6452757 C36.9455314,81.3342854 36.9761214,81.4770293 36.9761214,81.11506 C36.9761214,78.015337 35.9870683,72.8049311 30.9398188,64.2708391 C28.100081,59.4733815 25.7599533,54.609753 25.7599533,49.1389704 C25.7599533,35.5876342 36.4560205,24.7079329 49.8242447,24.7079329 L49.8230701,24.7079329 Z M2.63419277,39.0645445 C1.1913533,39.1002324 0.0493501041,40.2932225 0.0851111185,41.7360489 C0.120872133,43.1788753 1.3137891,44.3208916 2.75661551,44.2851305 L12.7083577,44.5706313 C14.1511971,44.6063193 15.344101,43.4643108 15.3798621,42.0215497 C15.4156231,40.5787885 14.2735416,39.3858063 12.8307804,39.3500453 L2.91975883,39.0645445 C2.82289216,39.0594466 2.731126,39.0594466 2.63425803,39.0645445 L2.63419277,39.0645445 Z M96.7274254,39.0645445 L86.8164038,39.3500453 C85.3735644,39.3857332 84.2315612,40.5787233 84.2673222,42.0215497 C84.3030832,43.4643761 85.4960001,44.6063924 86.9388266,44.5706313 L96.8905687,44.2851305 C98.3334082,44.2392468 99.4652312,43.0360662 99.4192901,41.5932659 C99.3733489,40.1504655 98.1702257,39.0186033 96.7274254,39.0645445 L96.7274254,39.0645445 Z M35.7927451,90.7405155 C35.099386,90.7762034 34.451968,91.0871885 33.9879885,91.6072111 C33.524048,92.1221305 33.2895263,92.8001933 33.325222,93.4935393 C33.3609178,94.1868854 33.671895,94.8343163 34.1919176,95.2982959 C34.7068371,95.7622364 35.3848998,95.9967581 36.0782459,95.9610624 L63.5672417,95.9610624 C64.2657039,95.9712582 64.9386896,95.7010511 65.4382997,95.2116211 C65.9328328,94.7170881 66.2132305,94.0492316 66.2132305,93.3507433 C66.2132305,92.6522549 65.9328328,91.9843854 65.4382997,91.4898654 C64.9386766,91.0004354 64.2657039,90.7302309 63.5672417,90.7404241 L36.0782459,90.7404241 C35.9813792,90.7353262 35.889613,90.7353262 35.7927451,90.7404241 L35.7927451,90.7405155 Z M38.4030381,100.202828 C37.709679,100.238516 37.0622611,100.549501 36.5982815,101.069523 C36.1343411,101.584443 35.8998193,102.262506 35.935515,102.955852 C35.9712108,103.649198 36.282188,104.296629 36.8022106,104.760608 C37.3171301,105.224549 37.9951928,105.45907 38.6885389,105.423375 L60.9569487,105.423375 C61.6554109,105.43357 62.3283966,105.163363 62.8280067,104.673933 C63.3225398,104.1794 63.6029374,103.511544 63.6029374,102.813055 C63.6029374,102.114567 63.3225398,101.446698 62.8280067,100.952178 C62.3283836,100.462748 61.6554109,100.192543 60.9569487,100.202736 L38.6885389,100.202736 C38.5916722,100.197638 38.4999061,100.197638 38.4030381,100.202736 L38.4030381,100.202828 Z M45.6220645,109.70586 C44.9287054,109.741548 44.2812875,110.052533 43.8173079,110.572556 C43.3533674,111.087476 43.1188457,111.765538 43.1545414,112.458884 C43.1902372,113.15223 43.5012144,113.799661 44.021237,114.263641 C44.5361565,114.727581 45.2142192,114.962103 45.9075653,114.926407 L53.7384443,114.926407 C54.4369065,114.936603 55.1098923,114.666396 55.6095024,114.176966 C56.1040354,113.682433 56.3844331,113.014577 56.3844331,112.316088 C56.3844331,111.6176 56.1040354,110.94973 55.6095024,110.45521 C55.1098792,109.96578 54.4369065,109.695576 53.7384443,109.705769 L45.9075653,109.705769 C45.8106986,109.700671 45.7189324,109.700671 45.6220645,109.705769 L45.6220645,109.70586 Z" id="Shape" fill="#4593B3"></path>
            <path d="M60.2642422,40.8591209 C59.5759862,40.8948089 58.9336453,41.205794 58.4696657,41.7156233 L46.1931966,55.1338346 L41.4213199,51.2183951 C40.8911041,50.7493515 40.1875519,50.5148428 39.4839604,50.570925 C38.775305,50.6270058 38.1176025,50.9685901 37.6690237,51.5191922 C37.2204448,52.0697944 37.0113473,52.7784498 37.0980221,53.4820021 C37.1846916,54.1906575 37.5517693,54.8278691 38.1176678,55.2562182 L44.7658231,60.7623703 C45.8364478,61.6494654 47.4168367,61.5424042 48.354976,60.5176554 L62.3448415,45.2631029 C63.0891796,44.4830691 63.2778124,43.3206534 62.813885,42.3468836 C62.3550477,41.3731268 61.3405051,40.7817519 60.2648034,40.8582334 L60.2642422,40.8591209 Z" id="Path" fill="#F39200"></path>
        </g>
    </g>
</svg>