<?xml version="1.0" encoding="UTF-8"?>
<svg width="77px" height="89px" viewBox="0 0 77 89" version="1.1" xmlns="http://www.w3.org/2000/svg" xmlns:xlink="http://www.w3.org/1999/xlink">
    <!-- Generator: Sketch 58 (84663) - https://sketch.com -->
    <title>np_think_2512866_4593B3</title>
    <desc>Created with Sketch.</desc>
    <g id="Page-1" stroke="none" stroke-width="1" fill="none" fill-rule="evenodd">
        <g id="np_think_2512866_4593B3" fill="#4593B3" fill-rule="nonzero">
            <path d="M38.812,0.9688 C37.7925,1.066456 37.0112,1.91411 36.9995,2.9376 L36.78075,10.5001 C36.753406,11.6056 37.62841,12.5196 38.73385,12.547 C39.83929,12.5744 40.75335,11.69934 40.78075,10.5939 L40.9995,3.0314 C41.019031,2.45718 40.79247,1.8986 40.3745,1.5041 C39.95262,1.10957 39.38622,0.91426 38.812,0.96894 L38.812,0.9688 Z M15.687,11.9998 C14.90575,12.054488 14.2261,12.55839 13.9526,13.2928 C13.67526,14.02327 13.854944,14.8514 14.40572,15.4061 L17.71822,18.8749 C18.06588,19.32412 18.58541,19.60537 19.15182,19.64443 C19.71823,19.687399 20.27292,19.48818 20.68302,19.09755 C21.09318,18.70302 21.31583,18.15614 21.30021,17.58975 C21.280679,17.02334 21.02677,16.49205 20.59318,16.12495 L17.31198,12.65615 C16.90182,12.19912 16.30028,11.95693 15.68698,11.9999 L15.687,11.9998 Z M62.062,11.9998 C61.53466,12.027144 61.0425,12.26542 60.687,12.65605 L57.4058,16.12485 C56.97221,16.49204 56.7183,17.02329 56.69877,17.58965 C56.683145,18.15606 56.9058,18.70295 57.31596,19.09745 C57.72612,19.48807 58.2808,19.68729 58.84716,19.64433 C59.41357,19.605268 59.93306,19.32402 60.28076,18.8748 L63.59326,15.406 C64.17529,14.82006 64.33935,13.9333 63.99951,13.1755 C63.65967,12.42159 62.89011,11.9528 62.06201,11.9997 L62.062,11.9998 Z M39,15.8748 C26.578,15.8748 16.562,26.0898 16.562,38.5938 C16.562,43.918 18.8081,48.3594 21.0932,52.2188 C24.7182,58.3438 25.1557,61.4961 25.1557,63.0938 C25.1557,63.89458 24.92132,64.1016 25.0307,65.2188 C25.085388,65.77739 25.69867,66.8555 26.4057,67.1876 C27.11273,67.5197 27.5463,67.5003185 27.9995,67.5003185 L49.9995,67.5003185 C50.45262,67.5003185 50.88622,67.519631 51.5933,67.1876 C52.30038,66.855569 52.9136,65.7774 52.9683,65.2188 C53.07768,64.1016 52.8433,63.8946 52.8433,63.0938 C52.8433,61.4961 53.2808,58.3438 56.9058,52.2188 C59.191,48.3594 61.437,43.918 61.437,38.5938 C61.437,26.0898 51.421,15.8748 38.999,15.8748 L39,15.8748 Z M39,19.8748 C49.242,19.8748 57.438,28.2107 57.438,38.5938 C57.438,42.7852 55.645,46.5118 53.4692,50.1878 C49.602,56.7269 48.8442,60.7188 48.8442,63.0938 C48.8442,63.37114 48.867638,63.26177 48.87545,63.50005 L29.12545,63.50005 C29.133262,63.26177 29.1567,63.37114 29.1567,63.0938 C29.1567,60.7188 28.39889,56.7266 24.5317,50.1878 C22.3559,46.512 20.5629,42.7855 20.5629,38.5938 C20.5629,28.2108 28.7582,19.8748 39.0009,19.8748 L39,19.8748 Z M2.844,30.8748 C1.7385,30.902144 0.8635,31.81621 0.8909,32.9217 C0.9183,34.02719 1.83231,34.9022 2.9378,34.8748 L10.5628,35.09355 C11.6683,35.120894 12.5823,34.24589 12.6097,33.14045 C12.6371,32.03501 11.76204,31.12095 10.6566,31.09355 L3.0628,30.8748 C2.988581,30.870894 2.91827,30.870894 2.84405,30.8748 L2.844,30.8748 Z M74.938,30.8748 L67.3442,31.09355 C66.2387,31.120894 65.3637,32.03496 65.3911,33.14045 C65.4185,34.24594 66.33251,35.12095 67.438,35.09355 L75.063,34.8748 C76.1685,34.839644 77.0357,33.91777 77.0005,32.8123 C76.9653,31.70683 76.04347,30.8396 74.938,30.8748 L74.938,30.8748 Z M47,32.2498 C46.47266,32.277144 45.9805,32.51542 45.625,32.90605 L36.2188,43.18705 L32.5626,40.18705 C32.15635,39.82767 31.61729,39.64799 31.0782,39.69096 C30.53523,39.733929 30.0313,39.99565 29.6876,40.41752 C29.3439,40.83939 29.18369,41.38236 29.2501,41.92142 C29.316506,42.46439 29.59776,42.95262 30.03135,43.28082 L35.12515,47.49962 C35.94546,48.17931 37.15635,48.09728 37.87515,47.31212 L48.59415,35.62412 C49.16446,35.02646 49.30899,34.13582 48.95353,33.38972 C48.60197,32.64363 47.82463,32.19052 47.00043,32.24912 L47,32.2498 Z M28.25,70.4688 C27.71875,70.496144 27.2227,70.73442 26.8672,71.13286 C26.51173,71.52739 26.33204,72.04692 26.35939,72.57816 C26.38674,73.1094 26.62501,73.60546 27.02345,73.96096 C27.41798,74.31643 27.93751,74.49612 28.46875,74.46877 L49.53075,74.46877 C50.06591,74.476582 50.58155,74.26955 50.96435,73.89455 C51.34326,73.51564 51.5581,73.00393 51.5581,72.46875 C51.5581,71.93357 51.34326,71.42185 50.96435,71.04295 C50.58154,70.66795 50.06591,70.46092 49.53075,70.46873 L28.46875,70.46873 C28.394531,70.464824 28.32422,70.464824 28.25,70.46873 L28.25,70.4688 Z M30.25,77.7188 C29.71875,77.746144 29.2227,77.98442 28.8672,78.38286 C28.51173,78.77739 28.33204,79.29692 28.35939,79.82816 C28.38674,80.3594 28.62501,80.85546 29.02345,81.21096 C29.41798,81.56643 29.93751,81.74612 30.46875,81.71877 L47.53075,81.71877 C48.06591,81.726582 48.58155,81.51955 48.96435,81.14455 C49.34326,80.76564 49.5581,80.25393 49.5581,79.71875 C49.5581,79.18357 49.34326,78.67185 48.96435,78.29295 C48.58154,77.91795 48.06591,77.71092 47.53075,77.71873 L30.46875,77.71873 C30.394531,77.714824 30.32422,77.714824 30.25,77.71873 L30.25,77.7188 Z M35.7812,85 C35.24995,85.027344 34.7539,85.26562 34.3984,85.66406 C34.04293,86.05859 33.86324,86.57812 33.89059,87.10936 C33.91794,87.6406 34.15621,88.13666 34.55465,88.49216 C34.94918,88.84763 35.46871,89.02732 35.99995,88.99997 L41.99995,88.99997 C42.53511,89.007782 43.05075,88.80075 43.43355,88.42575 C43.81246,88.04684 44.0273,87.53513 44.0273,86.99995 C44.0273,86.46477 43.81246,85.95305 43.43355,85.57415 C43.05074,85.19915 42.53511,84.99212 41.99995,84.99993 L35.99995,84.99993 C35.925731,84.996024 35.85542,84.996024 35.7812,84.99993 L35.7812,85 Z" id="Shape"></path>
        </g>
    </g>
</svg>