<?xml version="1.0" encoding="UTF-8"?>
<svg width="623px" height="300px" viewBox="0 0 623 300" version="1.1" xmlns="http://www.w3.org/2000/svg" xmlns:xlink="http://www.w3.org/1999/xlink">
    <!-- Generator: Sketch 58 (84663) - https://sketch.com -->
    <title>Slice</title>
    <desc>Created with Sketch.</desc>
    <defs>
        <path d="M933.165414,-2.84217094e-14 L933.165414,465 L0.834586466,465 L0.834586466,-2.84217094e-14 L933.165414,-2.84217094e-14 Z M435.398229,213.94308 C412.688143,248.913545 413.240004,289.57679 436.630845,304.766979 C460.021686,319.957169 497.39387,303.922088 520.103956,268.951623 C542.814041,233.981158 542.26218,193.317913 518.871339,178.127724 C495.480499,162.937534 458.108314,178.972615 435.398229,213.94308 Z" id="path-1"></path>
    </defs>
    <g id="New,-minimal" stroke="none" stroke-width="1" fill="none" fill-rule="evenodd">
        <g id="Logo" transform="translate(-886.000000, 266.000000)">
            <mask id="mask-2" fill="white">
                <use xlink:href="#path-1"></use>
            </mask>
            <g id="Mask"></g>
        </g>
        <g id="Group-2" transform="translate(272.000000, 66.000000)" fill-rule="nonzero">
            <path d="M33.48,38.34 C31.7599914,40.8600126 29.5100139,42.7799934 26.73,44.1 C23.9499861,45.4200066 20.9400162,46.08 17.7,46.08 C12.6599748,46.08 8.4500169,44.4200166 5.07,41.1 C1.6899831,37.7799834 1.13686838e-13,33.720024 1.13686838e-13,28.92 C1.13686838e-13,24.119976 1.699983,20.0100171 5.1,16.59 C8.500017,13.1699829 12.899973,11.46 18.3,11.46 C21.500016,11.46 24.4499865,12.159993 27.15,13.56 C29.8500135,14.96 31.9599924,16.9199874 33.48,19.44 L29.58,21.9 C26.6599854,18.099981 22.8400236,16.2 18.12,16.2 C14.3999814,16.2 11.2800126,17.3899881 8.76,19.77 C6.2399874,22.1500119 4.98,25.0999824 4.98,28.62 C4.98,32.1400176 6.2199876,35.1599874 8.7,37.68 C11.1800124,40.2000126 14.319981,41.46 18.12,41.46 C22.6800228,41.46 26.5199844,39.5400192 29.64,35.7 L33.48,38.34 Z" id="Path" fill="#1696B7"></path>
            <path d="M55.83,11.46 C60.5500236,11.46 64.5599835,13.159983 67.86,16.56 C71.1600165,19.960017 72.81,24.0399762 72.81,28.8 C72.81,33.5600238 71.1800163,37.6299831 67.92,41.01 C64.6599837,44.3900169 60.630024,46.08 55.83,46.08 C51.029976,46.08 46.9900164,44.3900169 43.71,41.01 C40.4299836,37.6299831 38.79,33.5600238 38.79,28.8 C38.79,24.0399762 40.4399835,19.960017 43.74,16.56 C47.0400165,13.159983 51.0699762,11.46 55.83,11.46 Z" id="Path" fill="#1696B7"></path>
            <path d="M55.83,41.34 C59.1500166,41.34 61.9799883,40.1300121 64.32,37.71 C66.6600117,35.2899879 67.83,32.3700171 67.83,28.95 C67.83,25.5299829 66.6400119,22.5700125 64.26,20.07 C61.8799881,17.5699875 59.0600163,16.32 55.8,16.32 C52.5399837,16.32 49.7300118,17.5699875 47.37,20.07 C45.0099882,22.5700125 43.83,25.5399828 43.83,28.98 C43.83,32.4200172 44.9699886,35.339988 47.25,37.74 C49.5300114,40.140012 52.3899828,41.34 55.83,41.34 Z" id="Path" fill="#FFFFFF"></path>
            <path d="M108.24,45 L103.32,45 L103.32,29.4 C103.32,25.799982 103.150002,23.3500065 102.81,22.05 C102.469998,20.7499935 101.970003,19.6500045 101.31,18.75 C100.649997,17.8499955 99.8100051,17.1800022 98.79,16.74 C97.7699949,16.2999978 96.5300073,16.08 95.07,16.08 C93.6099927,16.08 92.180007,16.4399964 90.78,17.16 C89.379993,17.8800036 88.180005,18.8799936 87.18,20.16 C86.179995,21.4400064 85.4900019,22.7999928 85.11,24.24 C84.7299981,25.6800072 84.54,28.5599784 84.54,32.88 L84.54,45 L79.56,45 L79.56,12.3 L84.54,12.3 L84.54,17.22 C87.7800162,13.3799808 91.6199778,11.46 96.06,11.46 C98.4200118,11.46 100.56,12.0699939 102.48,13.29 C104.40001,14.5100061 105.839995,16.1899893 106.8,18.33 C107.760005,20.4700107 108.24,23.7599778 108.24,28.2 L108.24,45 Z" id="Path" fill="#1696B7"></path>
            <path d="M144.81,45 L139.89,45 L139.89,29.4 C139.89,25.799982 139.720002,23.3500065 139.38,22.05 C139.039998,20.7499935 138.540003,19.6500045 137.88,18.75 C137.219997,17.8499955 136.380005,17.1800022 135.36,16.74 C134.339995,16.2999978 133.100007,16.08 131.64,16.08 C130.179993,16.08 128.750007,16.4399964 127.35,17.16 C125.949993,17.8800036 124.750005,18.8799936 123.75,20.16 C122.749995,21.4400064 122.060002,22.7999928 121.68,24.24 C121.299998,25.6800072 121.11,28.5599784 121.11,32.88 L121.11,45 L116.13,45 L116.13,12.3 L121.11,12.3 L121.11,17.22 C124.350016,13.3799808 128.189978,11.46 132.63,11.46 C134.990012,11.46 137.13,12.0699939 139.05,13.29 C140.97001,14.5100061 142.409995,16.1899893 143.37,18.33 C144.330005,20.4700107 144.81,23.7599778 144.81,28.2 L144.81,45 Z" id="Path" fill="#1696B7"></path>
            <path d="M184.92,29.52 L156.24,29.52 C156.440001,33.120018 157.649989,36.0099891 159.87,38.19 C162.090011,40.3700109 164.739985,41.46 167.82,41.46 C173.060026,41.46 177.059986,38.8800258 179.82,33.72 L184.02,35.88 C182.139991,39.3600174 179.920013,41.9299917 177.36,43.59 C174.799987,45.2500083 171.740018,46.08 168.18,46.08 C163.259975,46.08 159.200016,44.3900169 156,41.01 C152.799984,37.6299831 151.2,33.5600238 151.2,28.8 C151.2,24.0399762 152.809984,19.960017 156.03,16.56 C159.250016,13.159983 163.239976,11.46 168,11.46 C172.760024,11.46 176.739984,13.0699839 179.94,16.29 C183.140016,19.5100161 184.799999,23.919972 184.92,29.52 Z" id="Path" fill="#1696B7"></path>
            <path d="M179.4,25.14 C178.799997,22.339986 177.440011,20.1600078 175.32,18.6 C173.199989,17.0399922 170.760014,16.26 168,16.26 C162.399972,16.26 158.680009,19.2199704 156.84,25.14 L179.4,25.14 Z" id="Path" fill="#FFFFFF"></path>
            <path d="M223.65,38.34 C221.929991,40.8600126 219.680014,42.7799934 216.9,44.1 C214.119986,45.4200066 211.110016,46.08 207.87,46.08 C202.829975,46.08 198.620017,44.4200166 195.24,41.1 C191.859983,37.7799834 190.17,33.720024 190.17,28.92 C190.17,24.119976 191.869983,20.0100171 195.27,16.59 C198.670017,13.1699829 203.069973,11.46 208.47,11.46 C211.670016,11.46 214.619986,12.159993 217.32,13.56 C220.020013,14.96 222.129992,16.9199874 223.65,19.44 L219.75,21.9 C216.829985,18.099981 213.010024,16.2 208.29,16.2 C204.569981,16.2 201.450013,17.3899881 198.93,19.77 C196.409987,22.1500119 195.15,25.0999824 195.15,28.62 C195.15,32.1400176 196.389988,35.1599874 198.87,37.68 C201.350012,40.2000126 204.489981,41.46 208.29,41.46 C212.850023,41.46 216.689984,39.5400192 219.81,35.7 L223.65,38.34 Z" id="Path" fill="#1696B7"></path>
            <path d="M245.52,16.62 L239.04,16.62 L239.04,39.54 C239.04,40.3800042 239.159999,40.8899991 239.4,41.07 C239.640001,41.2500009 240.239995,41.34 241.2,41.34 L244.08,41.34 L244.08,45.6 L243.336531,45.7194671 C241.778838,45.9598234 240.566671,46.08 239.7,46.08 C237.77999,46.08 236.360005,45.6100047 235.44,44.67 C234.519995,43.7299953 234.06,42.2400102 234.06,40.2 L234.06,16.62 L228.42,16.62 L228.42,12.3 L234.06,12.3 L234.06,5.68434189e-14 L239.04,5.68434189e-14 L239.04,12.3 L245.52,12.3 L245.52,16.62 Z" id="Path" fill="#1696B7"></path>
            <path d="M282.99,29.52 L254.31,29.52 C254.510001,33.120018 255.719989,36.0099891 257.94,38.19 C260.160011,40.3700109 262.809985,41.46 265.89,41.46 C271.130026,41.46 275.129986,38.8800258 277.89,33.72 L282.09,35.88 C280.209991,39.3600174 277.990013,41.9299917 275.43,43.59 C272.869987,45.2500083 269.810018,46.08 266.25,46.08 C261.329975,46.08 257.270016,44.3900169 254.07,41.01 C250.869984,37.6299831 249.27,33.5600238 249.27,28.8 C249.27,24.0399762 250.879984,19.960017 254.1,16.56 C257.320016,13.159983 261.309976,11.46 266.07,11.46 C270.830024,11.46 274.809984,13.0699839 278.01,16.29 C281.210016,19.5100161 282.869999,23.919972 282.99,29.52 Z" id="Path" fill="#1696B7"></path>
            <path d="M277.47,25.14 C276.869997,22.339986 275.510011,20.1600078 273.39,18.6 C271.269989,17.0399922 268.830014,16.26 266.07,16.26 C260.469972,16.26 256.750009,19.2199704 254.91,25.14 L277.47,25.14 Z" id="Path" fill="#FFFFFF"></path>
            <path d="M322.38,45 L317.52,45 L317.52,40.2 C313.959982,44.1200196 309.850023,46.08 305.19,46.08 C300.529977,46.08 296.560016,44.380017 293.28,40.98 C289.999984,37.579983 288.36,33.5000238 288.36,28.74 C288.36,23.9799762 290.019983,19.9100169 293.34,16.53 C296.660017,13.1499831 300.709976,11.46 305.49,11.46 C310.270024,11.46 314.279984,13.3999806 317.52,17.28 L317.52,5.68434189e-14 L322.38,5.68434189e-14 L322.38,45 Z" id="Path" fill="#1696B7"></path>
            <path d="M305.58,41.46 C302.219983,41.46 299.340012,40.2000126 296.94,37.68 C294.539988,35.1599874 293.34,32.2100169 293.34,28.83 C293.34,25.4499831 294.509988,22.5100125 296.85,20.01 C299.190012,17.5099875 302.109982,16.26 305.61,16.26 C309.110017,16.26 312.009988,17.4699879 314.31,19.89 C316.610011,22.3100121 317.76,25.3299819 317.76,28.95 C317.76,32.5700181 316.520012,35.5599882 314.04,37.92 C311.559988,40.2800118 308.740016,41.46 305.58,41.46 Z" id="Path" fill="#FFFFFF"></path>
            <path d="M22.276,57.956 C23.2,58.712 21.436,62.66 19,65.936 L18.6510578,66.3921387 C16.9645867,68.5288 14.4976,70.724 12.616,70.724 C12.028,70.724 11.44,70.556 10.768,70.136 C14.8,62.072 21.016,56.948 22.276,57.956 Z M28.576,61.316 C28.576,60.224 28.24,58.964 27.736,58.208 C26.56,56.528 24.88,55.184 22.528,53.84 C21.688,53.336 20.764,53.168 19.588,53.168 C14.716,53.168 7.912,57.62 3.544,66.524 C1.78,69.884 0.94,73.16 0.94,76.184 C0.94,82.904 5.224,88.028 13.036,87.944 C19.588,87.86 26.308,83.912 29.836,78.788 C31.348,76.52 31.264,74.084 31.012,73.328 C30.34,71.648 29.248,71.816 28.324,73.16 L27.9467079,73.7215281 C24.4770357,78.8040714 19.024,84.584 12.868,84.584 C10.348,84.584 8.836,81.98 8.836,78.284 C8.836,76.772 9.088,75.008 9.592,73.328 C11.524,74.588 13.54,75.176 15.556,75.176 C22.948,75.176 28.576,66.356 28.576,61.316 Z M67.93,48.212 C70.114,44.264 71.206,40.988 71.206,38.72 C71.206,37.544 70.87,36.452 70.45,35.444 C69.61,33.428 68.434,33.26 66.922,35.36 L66.5767103,35.8599142 C63.715216,40.0648064 58.522,49.11584 54.49,56.696 C53.818,54.512 51.97,53.336 49.114,53.336 C44.746,53.336 37.774,57.284 31.222,66.776 C28.282,71.06 26.77,75.68 26.77,79.208 C26.77,84.164 29.458,87.776 34.33,87.776 C38.026,87.776 41.302,85.592 43.906,82.904 C44.578,86.6 47.35,88.028 51.466,88.028 C56.338,88.028 61.546,83.66 63.814,79.124 C64.867,76.856 64.5921786,74.588 64.1946173,73.7510344 L64.15,73.664 C63.394,72.152 62.302,72.068 61.462,73.664 L61.1334274,74.2913247 C58.2970331,79.6185205 54.3790566,84.752 51.55,84.752 C50.794,84.752 50.458,84.164 50.458,82.904 C50.458,81.56 50.962,79.712 51.97,77.528 C55.918,69.212 63.058,57.452 67.93,48.212 Z M46.2164098,71.6652099 L45.5927134,72.8548055 C41.9345408,79.7118889 38.0962545,84.08 35.506,84.08 C34.582,84.08 34.246,82.988 34.246,81.476 C34.246,78.7995862 35.4989084,74.7919572 37.8535122,70.9652438 L38.11,70.556 C42.562,63.5 48.106,58.376 50.458,58.46 C52.0290625,58.5426875 50.5884912,63.2649189 46.2164098,71.6652099 L46.2164098,71.6652099 Z M97.624,79.04 C98.884,76.604 98.548,74.168 98.212,73.412 C97.54,71.816 96.112,72.068 95.272,73.496 L94.9244266,74.0969089 C91.9268323,79.2171805 87.8593962,84.584 85.192,84.584 C84.1,84.584 83.596,83.744 83.596,82.232 C83.596,78.956 86.872,73.244 89.308,69.296 L89.8294559,68.4230657 C92.4553388,63.9790854 94.012,60.5549091 94.012,57.872 C94.012,56.024 93.592,54.68 92.752,53.504 C91.7776,52.1236 90.4892267,52.39156 89.3421413,53.8526187 L89.224,54.008 C86.2,57.872 84.016,63.584 79.06,71.648 L78.1564651,73.0462192 C74.1623269,79.1415549 70.1707368,84.08 68.14,84.08 C66.334,84.08 66.5336302,81.1116674 67.9548714,77.8406669 L68.056,77.612 C70.996,71.144 77.128,61.4 77.128,57.956 C77.128,56.696 76.792,55.268 75.868,54.092 C74.86,52.832 73.348,52.664 72.256,54.092 C67.048,61.4 62.764,69.8 60.916,75.092 C60.16,77.108 59.824,79.04 59.824,80.888 C59.824,84.5 61.504,87.692 65.788,87.692 C70.072,87.692 73.852,85.088 76.708,81.896 C77.044,85.676 79.564,88.112 84.52,88.112 C89.728,88.112 95.188,83.828 97.624,79.04 Z M112.702,53.336 C107.83,53.336 101.194,57.872 96.91,66.524 C95.146,69.884 94.306,73.244 94.306,76.268 C94.306,82.988 98.59,87.944 106.318,87.86 C112.87,87.776 119.674,83.66 122.866,78.62 C124.378,76.268 124.378,74.084 123.958,72.992 C123.454,71.564 122.194,71.9 121.438,73.16 L121.075402,73.6954558 C117.670643,78.6458283 112.060947,84.6650526 105.982,84.584 C103.714,84.5 102.202,82.232 102.202,78.536 C102.202,76.016 103.042,72.572 104.722,69.128 C108.082,62.324 113.542,56.864 114.55,57.704 C114.886,58.04 114.298,59.552 113.458,61.232 L113.169961,61.8976284 C111.891867,64.8973867 111.526,66.4288 111.526,67.448 C111.526,69.716 112.954,71.312 114.466,72.236 C116.146,73.076 116.902,72.908 117.49,71.312 C117.826,70.388 118.33,69.128 119.002,67.868 L119.442292,66.9511931 C120.827113,64.0122031 121.823875,61.224125 120.682,58.712 C119.338,56.192 115.81,53.336 112.702,53.336 Z M125.155112,66.2433644 L124.84,66.692 C121.816,70.892 120.304,75.596 120.304,79.208 C120.304,84.164 122.992,87.776 127.948,87.776 C131.308,87.776 135.088,85.172 137.524,82.82 C138.196,85.928 140.632,88.112 144.832,88.112 C149.956,88.112 155.332,83.66 157.516,79.04 C158.692,76.604 158.188,74.336 157.852,73.58 C157.012,71.816 156.256,71.9 155.332,73.58 L155.012228,74.1988693 C152.244693,79.4629605 148.245887,84.752 145.336,84.752 C144.496,84.752 144.16,83.996 144.16,82.736 C144.16,77.2183529 150.942007,68.3097024 153.266,63.6089357 L153.4,63.332 C155.584,58.964 154.828,55.268 153.4,53.588 C152.426759,52.4525517 151.061983,52.4917051 150.06174,54.0078863 L148.36,56.78 C147.604,54.596 145.756,53.084 142.732,53.084 C138.514937,53.084 131.774614,56.9095889 125.155112,66.2433644 L125.155112,66.2433644 Z M129.04,84.08 C128.2,84.08 127.864,83.072 127.864,81.56 C127.864,78.9616 129.198387,74.71484 131.563652,70.868396 L131.812,70.472 C136.096,63.584 141.892,58.292 143.572,58.292 C144.412,58.292 144.58,58.88 144.58,59.888 C144.58,62.072 143.068,66.188 139.792,71.9 L139.352003,72.6484617 C135.401393,79.3154643 131.713,84.08 129.04,84.08 Z M154.366,78.452 C154.366,84.248 158.23,87.86 162.682,87.86 C169.738,87.86 175.366,80.636 176.542,78.116 C177.466,76.184 177.802,74.924 177.382,73.16 C176.809892,70.9532973 174.965451,71.0526983 174.015081,72.9166018 L173.938,73.076 C170.998,79.376 166.63,84.668 163.354,84.668 C161.926,84.668 161.086,82.904 161.086,80.384 C161.086,78.536 161.59,76.352 162.598,74.084 C165.538,67.7 170.326,59.384 173.518,53.924 C175.366,53.672 177.55,53.504 179.062,53.672 C181.078,53.924 181.666,52.916 180.826,51.404 C180.238,50.396 178.81,49.052 176.206,48.716 C177.214,46.364 177.55,44.432 177.55,42.92 C177.55,41.912 177.214,40.484 176.626,39.476 C175.730875,37.929875 174.756918,37.8027266 173.551392,39.4763973 L172.79484,40.5704198 C171.09963,43.0537778 169.448667,45.692 167.134,49.724 C165.491333,49.8733333 163.516815,49.9562963 161.741407,49.913893 L161.086,49.892 C159.154,49.808 158.314,50.648 159.49,52.412 C160.162,53.42 161.674,54.344 164.278,54.68 C160.918,60.728 157.726,67.364 156.046,71.48 C154.87,74.252 154.366,76.604 154.366,78.452 Z M185.908,49.556 C185.908,52.16 188.176,54.68 190.864,54.68 C192.964,54.68 194.224,52.748 194.224,50.48 C194.224,48.044 191.956,45.02 189.604,45.02 C187.672,45.02 185.908,47.204 185.908,49.556 Z M192.124,79.04 C193.216,76.856 193.3,74.756 192.544,73.328 C191.8132,71.8664 190.768427,71.6606933 190.092572,73.0143876 L190.024,73.16 C187.42,78.872 183.052,84.5 179.692,84.5 C178.768,84.5 178.432,83.744 178.432,82.4 C178.432,81.056 178.852,79.292 179.608,77.36 C181.036,74 184.9,67.7 186.496,64.088 C188.629209,59.9856744 188.037711,56.444318 186.521825,54.7163271 L186.412,54.596 C185.32,53.336 184.312,53.504 183.052,55.184 C179.944,59.552 174.568,69.296 172.468,75.176 C171.796,77.36 171.46,79.124 171.46,80.72 C171.46,84.92 173.728,87.86 178.852,87.86 C183.808,87.86 189.604,84.332 192.124,79.04 Z M255.502,73.412 C254.83,72.236 253.57,72.236 252.898,73.412 L252.546287,74.0190636 C249.444436,79.2811687 244.989556,84.5 242.482,84.5 C241.222,84.5 240.634,83.408 240.634,81.728 C240.634,80.384 241.054,78.704 241.894,76.856 L242.138647,76.3524142 C243.035329,74.5368212 244.705249,71.4288143 245.98855,69.3481108 L246.178,69.044 C247.522,66.944 248.698,64.676 249.538,63.08 C250.126,61.82 250.294,60.644 250.294,59.72 C250.294,56.528 247.858,53.588 245.59,53.588 C243.07,53.588 238.618,56.444 235.09,59.72 C235.174,59.216 235.174,58.628 235.174,58.208 C235.174,56.864 234.754,55.352 233.998,54.092 C233.074,52.832 231.898,52.832 230.806,54.26 L230.304603,54.9841591 C226.568049,60.2992665 221.555043,65.6511304 217.618,66.776 C217.618,61.484 216.526,59.804 214.93,58.124 L214.659625,57.851 C214.400625,57.585 214.085625,57.2443333 213.664847,56.7294444 L213.502,56.528 C211.99,54.596 209.722,53.336 207.202,53.588 C202.01584,53.9996 196.82968,58.7675744 193.620023,64.1760972 L193.426,64.508 C191.158,68.372 189.898,72.404 189.898,76.184 C189.898,78.872 190.654,81.392 192.166,83.576 C194.434,86.684 197.542,87.692 200.23,87.692 C208.63,87.692 214.846,78.032 217.03,69.8 L217.997556,69.7961111 C219.487,69.7766667 220.432,69.66 221.902,68.96 C220.138,72.404 218.626,76.016 217.87,78.2 C217.282,79.796 216.946,81.392 216.946,82.568 C216.946,84.5 217.618,85.928 218.71,87.104 C220.054,88.616 221.23,87.776 221.734,86.684 C225.01,79.292 229.21,70.808 233.494,66.104 C238.198,60.896 241.894,58.712 242.65,58.712 C242.902,58.712 241.222,62.156 240.55,63.332 L239.9473,64.369064 C238.0762,67.56392 235.6948,71.48 234.334,75.26 C233.578,77.444 233.242,79.292 233.242,80.804 C233.242,85.172 235.762,88.028 241.306,88.028 C246.598,88.028 252.814,83.828 255.082,79.04 C256.426,76.352 256.006,74.42 255.502,73.412 Z M211.066,65.516 C210.142,64.424 209.722,62.24 209.722,60.728 C209.722,59.384 210.478,58.712 210.982,58.712 C211.57,58.712 212.242,59.216 212.242,60.476 C212.242,61.568 211.906,63.584 211.066,65.516 Z M196.366,79.796 C196.366,76.604 197.71,71.9 199.894,68.12 C201.322,65.768 203.002,63.416 204.766,61.652 C205.522,64.004 207.706,66.776 209.974,68.204 L209.687479,68.943648 C209.079394,70.487456 208.263436,72.396832 207.282615,74.284704 L207.034,74.756 C204.094,80.384 200.482,83.408 198.298,83.492 C197.122,83.492 196.366,82.232 196.366,79.796 Z M256.531112,66.2433644 L256.216,66.692 C253.192,70.892 251.68,75.596 251.68,79.208 C251.68,84.164 254.368,87.776 259.324,87.776 C262.684,87.776 266.464,85.172 268.9,82.82 C269.572,85.928 272.008,88.112 276.208,88.112 C281.332,88.112 286.708,83.66 288.892,79.04 C290.068,76.604 289.564,74.336 289.228,73.58 C288.388,71.816 287.632,71.9 286.708,73.58 L286.388228,74.1988693 C283.620693,79.4629605 279.621887,84.752 276.712,84.752 C275.872,84.752 275.536,83.996 275.536,82.736 C275.536,77.2183529 282.318007,68.3097024 284.642,63.6089357 L284.776,63.332 C286.96,58.964 286.204,55.268 284.776,53.588 C283.802759,52.4525517 282.437983,52.4917051 281.43774,54.0078863 L279.736,56.78 C278.98,54.596 277.132,53.084 274.108,53.084 C269.890937,53.084 263.150614,56.9095889 256.531112,66.2433644 L256.531112,66.2433644 Z M260.416,84.08 C259.576,84.08 259.24,83.072 259.24,81.56 C259.24,78.9616 260.574387,74.71484 262.939652,70.868396 L263.188,70.472 C267.472,63.584 273.268,58.292 274.948,58.292 C275.788,58.292 275.956,58.88 275.956,59.888 C275.956,62.072 274.444,66.188 271.168,71.9 L270.728003,72.6484617 C266.777393,79.3154643 263.089,84.08 260.416,84.08 Z M315.142,41.576 C315.142,39.4869565 314.296601,37.2442042 312.605803,35.6563853 L312.37,35.444 C310.774,33.932 309.262,34.436 307.666,36.032 C299.560646,44.5508923 290.233763,59.7474764 286.821587,73.5233284 L286.666,74.168 C286.246,75.848 286.078,77.528 286.078,78.956 C286.078,84.752 289.27,87.692 294.394,87.692 C301.45,87.692 307.666,80.804 308.926,78.284 C310.018,76.016 310.102,74.084 309.766,72.824 C309.194333,70.7006667 307.431694,70.6416852 306.330707,72.5698629 L306.238,72.74 C303.046,78.788 298.174,84.416 294.31,84.416 C293.218,84.416 292.714,82.988 292.714,80.972 C292.714,78.032 293.806,74.252 295.486,69.968 C302.878,65.012 312.034,55.1 314.638,45.104 C315.058,43.676 315.142,42.752 315.142,41.576 Z M310.438,43.676 C310.942,44.012 309.85,47.708 306.994,52.496 C305.062,55.772 302.206,59.636 298.594,63.164 C299.182,61.736 302.878,55.436 305.062,51.74 L305.775864,50.5122309 C308.276359,46.2513282 310.130596,43.5222979 310.438,43.676 Z" id="educatioal" fill="#F39200"></path>
            <path d="M33.48,120.34 C31.7599914,122.860013 29.5100139,124.779993 26.73,126.1 C23.9499861,127.420007 20.9400162,128.08 17.7,128.08 C12.6599748,128.08 8.4500169,126.420017 5.07,123.1 C1.6899831,119.779983 1.13686838e-13,115.720024 1.13686838e-13,110.92 C1.13686838e-13,106.119976 1.699983,102.010017 5.1,98.59 C8.500017,95.1699829 12.899973,93.46 18.3,93.46 C21.500016,93.46 24.4499865,94.159993 27.15,95.56 C29.8500135,96.96 31.9599924,98.9199874 33.48,101.44 L29.58,103.9 C26.6599854,100.099981 22.8400236,98.2 18.12,98.2 C14.3999814,98.2 11.2800126,99.3899881 8.76,101.77 C6.2399874,104.150012 4.98,107.099982 4.98,110.62 C4.98,114.140018 6.2199876,117.159987 8.7,119.68 C11.1800124,122.200013 14.319981,123.46 18.12,123.46 C22.6800228,123.46 26.5199844,121.540019 29.64,117.7 L33.48,120.34 Z" id="Path" fill="#1696B7"></path>
            <path d="M55.83,93.46 C60.5500236,93.46 64.5599835,95.159983 67.86,98.56 C71.1600165,101.960017 72.81,106.039976 72.81,110.8 C72.81,115.560024 71.1800163,119.629983 67.92,123.01 C64.6599837,126.390017 60.630024,128.08 55.83,128.08 C51.029976,128.08 46.9900164,126.390017 43.71,123.01 C40.4299836,119.629983 38.79,115.560024 38.79,110.8 C38.79,106.039976 40.4399835,101.960017 43.74,98.56 C47.0400165,95.159983 51.0699762,93.46 55.83,93.46 Z" id="Path" fill="#1696B7"></path>
            <path d="M55.83,123.34 C59.1500166,123.34 61.9799883,122.130012 64.32,119.71 C66.6600117,117.289988 67.83,114.370017 67.83,110.95 C67.83,107.529983 66.6400119,104.570012 64.26,102.07 C61.8799881,99.5699875 59.0600163,98.32 55.8,98.32 C52.5399837,98.32 49.7300118,99.5699875 47.37,102.07 C45.0099882,104.570012 43.83,107.539983 43.83,110.98 C43.83,114.420017 44.9699886,117.339988 47.25,119.74 C49.5300114,122.140012 52.3899828,123.34 55.83,123.34 Z" id="Path" fill="#FFFFFF"></path>
            <path d="M108.24,127 L103.32,127 L103.32,111.4 C103.32,107.799982 103.150002,105.350007 102.81,104.05 C102.469998,102.749994 101.970003,101.650005 101.31,100.75 C100.649997,99.8499955 99.8100051,99.1800022 98.79,98.74 C97.7699949,98.2999978 96.5300073,98.08 95.07,98.08 C93.6099927,98.08 92.180007,98.4399964 90.78,99.16 C89.379993,99.8800036 88.180005,100.879994 87.18,102.16 C86.179995,103.440006 85.4900019,104.799993 85.11,106.24 C84.7299981,107.680007 84.54,110.559978 84.54,114.88 L84.54,127 L79.56,127 L79.56,94.3 L84.54,94.3 L84.54,99.22 C87.7800162,95.3799808 91.6199778,93.46 96.06,93.46 C98.4200118,93.46 100.56,94.0699939 102.48,95.29 C104.40001,96.5100061 105.839995,98.1899893 106.8,100.33 C107.760005,102.470011 108.24,105.759978 108.24,110.2 L108.24,127 Z" id="Path" fill="#1696B7"></path>
            <path d="M133.17,98.14 L129.99,101.44 C127.629988,99.239989 125.47001,98.14 123.51,98.14 C122.269994,98.14 121.230004,98.5299961 120.39,99.31 C119.549996,100.090004 119.13,101.049994 119.13,102.19 C119.13,103.330006 119.599995,104.329996 120.54,105.19 C121.37556,105.954448 122.787893,106.876909 124.777034,107.957406 L125.55,108.37 C127.950012,109.630006 129.799994,111.019992 131.1,112.54 C132.400006,114.060008 133.05,115.919989 133.05,118.12 C133.05,120.920014 132.08001,123.27999 130.14,125.2 C128.19999,127.12001 125.810014,128.08 122.97,128.08 C119.00998,128.08 115.710013,126.400017 113.07,123.04 L116.19,119.56 C118.350011,122.080013 120.549989,123.34 122.79,123.34 C124.310008,123.34 125.609995,122.840005 126.69,121.84 C127.770005,120.839995 128.31,119.670007 128.31,118.33 C128.31,116.989993 127.820005,115.870005 126.84,114.97 C125.859995,114.069996 124.180012,113.020006 121.8,111.82 C119.419988,110.619994 117.620006,109.290007 116.4,107.83 C115.179994,106.369993 114.57,104.450012 114.57,102.07 C114.57,99.6899881 115.439991,97.6600084 117.18,95.98 C118.920009,94.2999916 121.219986,93.46 124.08,93.46 C126.940014,93.46 129.969984,95.0199844 133.17,98.14 Z" id="Path" fill="#1696B7"></path>
            <path d="M167.58,127 L162.6,127 L162.6,122.08 C159.359984,125.920019 155.520022,127.84 151.08,127.84 C148.719988,127.84 146.58001,127.230006 144.66,126.01 C142.73999,124.789994 141.300005,123.110011 140.34,120.97 C139.379995,118.829989 138.9,115.540022 138.9,111.1 L138.9,94.3 L143.82,94.3 L143.82,109.9 C143.82,113.500018 143.989998,115.949994 144.33,117.25 C144.670002,118.550006 145.169997,119.649996 145.83,120.55 C146.490003,121.450004 147.329995,122.119998 148.35,122.56 C149.370005,123.000002 150.609993,123.22 152.07,123.22 C153.530007,123.22 154.959993,122.860004 156.36,122.14 C157.760007,121.419996 158.959995,120.420006 159.96,119.14 C160.960005,117.859994 161.649998,116.500007 162.03,115.06 L162.108521,114.729387 C162.436175,113.201221 162.6,110.431449 162.6,106.42 L162.6,94.3 L167.58,94.3 L167.58,127 Z" id="Path" fill="#1696B7"></path>
            <polygon id="Path" fill="#1696B7" points="180.15 127 175.23 127 175.23 82 180.15 82"></polygon>
            <path d="M202.86,98.62 L196.38,98.62 L196.38,121.54 C196.38,122.380004 196.499999,122.889999 196.74,123.07 C196.980001,123.250001 197.579995,123.34 198.54,123.34 L201.42,123.34 L201.42,127.6 L200.676531,127.719467 C199.118838,127.959823 197.906671,128.08 197.04,128.08 C195.11999,128.08 193.700005,127.610005 192.78,126.67 C191.859995,125.729995 191.4,124.24001 191.4,122.2 L191.4,98.62 L185.76,98.62 L185.76,94.3 L191.4,94.3 L191.4,82 L196.38,82 L196.38,94.3 L202.86,94.3 L202.86,98.62 Z" id="Path" fill="#1696B7"></path>
            <path d="M209.97,82 C211.050005,82 211.959996,82.3699963 212.7,83.11 C213.440004,83.8500037 213.81,84.7499947 213.81,85.81 C213.81,86.8700053 213.440004,87.7699963 212.7,88.51 C211.959996,89.2500037 211.060005,89.62 210,89.62 C208.939995,89.62 208.040004,89.2400038 207.3,88.48 C206.559996,87.7199962 206.19,86.8300051 206.19,85.81 C206.19,84.7899949 206.559996,83.9000038 207.3,83.14 C208.040004,82.3799962 208.929995,82 209.97,82 Z" id="Path" fill="#1696B7"></path>
            <polygon id="Path" fill="#1696B7" points="212.49 127 207.51 127 207.51 94.3 212.49 94.3"></polygon>
            <path d="M248.76,127 L243.84,127 L243.84,111.4 C243.84,107.799982 243.670002,105.350007 243.33,104.05 C242.989998,102.749994 242.490003,101.650005 241.83,100.75 C241.169997,99.8499955 240.330005,99.1800022 239.31,98.74 C238.289995,98.2999978 237.050007,98.08 235.59,98.08 C234.129993,98.08 232.700007,98.4399964 231.3,99.16 C229.899993,99.8800036 228.700005,100.879994 227.7,102.16 C226.699995,103.440006 226.010002,104.799993 225.63,106.24 C225.249998,107.680007 225.06,110.559978 225.06,114.88 L225.06,127 L220.08,127 L220.08,94.3 L225.06,94.3 L225.06,99.22 C228.300016,95.3799808 232.139978,93.46 236.58,93.46 C238.940012,93.46 241.08,94.0699939 243,95.29 C244.92001,96.5100061 246.359995,98.1899893 247.32,100.33 C248.280005,102.470011 248.76,105.759978 248.76,110.2 L248.76,127 Z" id="Path" fill="#1696B7"></path>
            <path d="M289.35,119.32 C289.35,123.640022 288.980004,126.83999 288.24,128.92 C287.499996,131.00001 286.380007,132.759993 284.88,134.2 C283.379992,135.640007 281.58001,136.729996 279.48,137.47 C277.379989,138.210004 275.070013,138.58 272.55,138.58 C264.029957,138.58 258.350014,134.980036 255.51,127.78 L260.79,127.78 C263.110012,131.940021 266.969973,134.02 272.37,134.02 C274.850012,134.02 277.06999,133.540005 279.03,132.58 C280.99001,131.619995 282.369996,130.340008 283.17,128.74 C283.93364,127.21272 284.33281,124.901874 284.367521,121.807399 L284.37,121.06 C282.809992,122.820009 280.930011,124.159995 278.73,125.08 C276.529989,126.000005 274.250012,126.46 271.89,126.46 C267.169976,126.46 263.220016,124.840016 260.04,121.6 C256.962565,118.4645 255.392964,114.785868 255.331155,110.563998 L255.33,110.14 C255.29,105.539977 256.949983,101.610016 260.31,98.35 C263.670017,95.0899837 267.659977,93.46 272.28,93.46 C276.900023,93.46 280.929983,95.3399812 284.37,99.1 L284.37,94.3 L289.35,94.3 L289.35,119.32 Z" id="Path" fill="#1696B7"></path>
            <path d="M284.55,110.14 C284.55,113.540017 283.420011,116.329989 281.16,118.51 C278.899989,120.690011 275.990018,121.78 272.43,121.78 C268.869982,121.78 265.950011,120.670011 263.67,118.45 C261.389989,116.229989 260.25,113.520016 260.25,110.32 C260.25,107.119984 261.439988,104.310012 263.82,101.89 C266.200012,99.4699879 269.149982,98.26 272.67,98.26 C275.990017,98.26 278.799988,99.3799888 281.1,101.62 C283.400011,103.860011 284.55,106.699983 284.55,110.14 Z" id="Path" fill="#FFFFFF"></path>
        </g>
        <g id="np_think_2512866_4593B3-Copy-2" transform="translate(29.000000, 19.000000)" fill-rule="nonzero">
            <path d="M109.933166,0.0728033913 C106.982713,0.35542186 104.721614,2.80854994 104.687754,5.770551 L104.054687,27.6565812 C103.975553,30.8559209 106.507833,33.5010557 109.706999,33.5803519 C112.906165,33.659648 115.551473,31.1272064 115.630769,27.9280404 L116.263836,6.04201013 C116.320359,4.38020566 115.664687,2.76366368 114.455074,1.62197258 C113.234144,0.480194661 111.594971,-0.0850364882 109.933166,0.0732085542 L109.933166,0.0728033913 Z M43.0089418,31.9967438 C40.7479882,32.155012 38.7810672,33.6133147 37.9895526,35.7387124 C37.1869249,37.8527075 37.7069341,40.2493328 39.3008911,41.8546459 L48.8873341,51.8934243 C49.8934693,53.1934762 51.3969998,54.0074195 53.036202,54.12046 C54.6754041,54.2448131 56.2806884,53.6682693 57.4675262,52.537778 C58.6545377,51.3960001 59.2988913,49.8133181 59.2536867,48.1741739 C59.1971636,46.5349717 58.4623458,44.9974075 57.2075274,43.9350126 L47.7116672,33.8962342 C46.5246558,32.57358 44.7837867,31.8726772 43.0088839,31.9970332 L43.0089418,31.9967438 Z M177.219144,31.9967438 C175.693011,32.0758779 174.26869,32.7654536 173.239865,33.8959448 L163.744005,43.9347232 C162.489187,44.9973786 161.754366,46.534827 161.697846,48.1738845 C161.652627,49.8130866 162.296995,51.3957975 163.484007,52.5374886 C164.671018,53.6679509 166.276273,54.2444977 167.915331,54.1201706 C169.554533,54.0071243 171.057948,53.1931868 172.064199,51.8931349 L181.650642,41.8543565 C183.335048,40.1586341 183.809841,37.5923325 182.826337,35.3992438 C181.842833,33.2174127 179.615711,31.8607249 177.219173,31.9964544 L177.219144,31.9967438 Z M110.477242,43.2110734 C74.5277193,43.2110734 45.5412097,72.773493 45.5412097,108.960326 C45.5412097,124.36867 52.0414692,137.222173 58.6545955,148.391355 C69.1454199,166.117231 70.4115539,175.240052 70.4115539,179.863829 C70.4115539,182.181302 69.7332534,182.780422 70.0498014,186.013622 C70.2080696,187.630193 71.9829203,190.750266 74.0290796,191.71137 C76.0752389,192.672474 77.3299994,192.616383 78.6415695,192.616383 L142.310021,192.616383 C143.62136,192.616383 144.876207,192.672274 146.922511,191.71137 C148.968815,190.750465 150.743486,187.630222 150.901789,186.013622 C151.218337,182.780422 150.540037,182.18136 150.540037,179.863829 C150.540037,175.240052 151.806171,166.117231 162.296995,148.391355 C168.910411,137.222173 175.410381,124.36867 175.410381,108.960326 C175.410381,72.773493 146.423871,43.2110734 110.474348,43.2110734 L110.477242,43.2110734 Z M110.477242,54.7871555 C140.117801,54.7871555 163.837193,78.9114212 163.837193,108.960326 C163.837193,121.090323 158.648214,131.87518 152.351404,142.5136 C141.159648,161.437889 138.966559,172.99053 138.966559,179.863829 C138.966559,180.666456 139.034389,180.349937 139.056997,181.039524 L81.9000919,181.039524 C81.9227,180.349937 81.9905301,180.666456 81.9905301,179.863829 C81.9905301,172.99053 79.7974124,161.437021 68.6056851,142.5136 C62.3088753,131.875759 57.1198965,121.091192 57.1198965,108.960326 C57.1198965,78.9117106 80.8372629,54.7871555 110.479847,54.7871555 L110.477242,54.7871555 Z M5.84103614,86.6213813 C2.64169645,86.7005154 0.109428492,89.3458411 0.188724654,92.5451519 C0.268020817,95.7444626 2.91318452,98.2767595 6.11249527,98.1974634 L28.1794018,98.8305304 C31.3787415,98.9096645 34.0238762,96.3773849 34.1031724,93.1782189 C34.1824686,89.9790528 31.650027,87.3337444 28.4508609,87.2544482 L6.47424784,86.6213813 C6.25945653,86.6100772 6.05597505,86.6100772 5.84118085,86.6213813 L5.84103614,86.6213813 Z M214.482552,86.6213813 L192.505939,87.2544482 C189.306599,87.3335823 186.774331,89.9789081 186.853627,93.1782189 C186.932924,96.3775296 189.578087,98.9098265 192.777398,98.8305304 L214.844305,98.1974634 C218.043644,98.0957212 220.553339,95.4277989 220.451469,92.228546 C220.3496,89.0292932 217.681805,86.5195117 214.482552,86.6213813 L214.482552,86.6213813 Z M79.3665216,201.20723 C77.8290732,201.286364 76.3934944,201.97594 75.3646701,203.129033 C74.3359326,204.270811 73.815906,205.774342 73.8950575,207.311761 C73.974209,208.849181 74.6637672,210.284788 75.8168608,211.313613 C76.9586387,212.34235 78.4621692,212.862377 79.9995886,212.783225 L140.953449,212.783225 C142.502213,212.805833 143.994486,212.206679 145.102317,211.121421 C146.19889,210.024847 146.820641,208.543948 146.820641,206.995126 C146.820641,205.446304 146.19889,203.965376 145.102317,202.868832 C143.994457,201.783574 142.502213,201.184425 140.953449,201.207027 L79.9995886,201.207027 C79.7847973,201.195723 79.5813158,201.195723 79.3665216,201.207027 L79.3665216,201.20723 Z M85.1545627,222.188879 C83.6171143,222.268013 82.1815354,222.957589 81.1527111,224.110682 C80.1239736,225.25246 79.6039471,226.75599 79.6830985,228.29341 C79.76225,229.830829 80.4518083,231.266437 81.6049018,232.295262 C82.7466797,233.323999 84.2502102,233.844026 85.7876297,233.764874 L135.165408,233.764874 C136.714172,233.787482 138.206445,233.188327 139.314276,232.10307 C140.410849,231.006496 141.0326,229.525597 141.0326,227.976775 C141.0326,226.427953 140.410849,224.947025 139.314276,223.850481 C138.206416,222.765223 136.714172,222.166074 135.165408,222.188676 L85.7876297,222.188676 C85.5728384,222.177372 85.3693569,222.177372 85.1545627,222.188676 L85.1545627,222.188879 Z M101.161969,243.260821 C99.6245206,243.339955 98.1889417,244.029531 97.1601174,245.182624 C96.13138,246.324402 95.6113534,247.827933 95.6905049,249.365352 C95.7696563,250.902772 96.4592146,252.338379 97.6123082,253.367204 C98.7540861,254.395941 100.257617,254.915968 101.795036,254.836816 L119.159159,254.836816 C120.707923,254.859424 122.200196,254.26027 123.308027,253.175012 C124.4046,252.078439 125.026352,250.597539 125.026352,249.048717 C125.026352,247.499896 124.4046,246.018967 123.308027,244.922423 C122.200167,243.837165 120.707923,243.238016 119.159159,243.260618 L101.795036,243.260618 C101.580245,243.249314 101.376763,243.249314 101.161969,243.260618 L101.161969,243.260821 Z" id="Shape" fill="#4593B3"></path>
            <path d="M133.629407,90.6006595 C132.103274,90.6797936 130.678953,91.3693692 129.650128,92.4998605 L102.428392,122.253285 L91.8472746,113.571224 C90.6715787,112.531171 89.111528,112.011173 87.5513905,112.135529 C85.9800242,112.259882 84.5216404,113.017308 83.5269656,114.238209 C82.5322907,115.459109 82.0686397,117.030476 82.2608316,118.590526 C82.4530119,120.161893 83.2669667,121.57484 84.5217851,122.524658 L99.2633469,134.733952 C101.637341,136.700988 105.141681,136.463592 107.221903,134.191323 L138.242909,100.366011 C139.893398,98.6363705 140.311671,96.0588401 139.282962,93.8996114 C138.265541,91.7404116 136.015903,90.4291019 133.630651,90.5986915 L133.629407,90.6006595 Z" id="Path" fill="#F39200"></path>
        </g>
    </g>
</svg>