<?xml version="1.0" encoding="UTF-8"?>
<svg width="339px" height="391px" viewBox="0 0 339 391" version="1.1" xmlns="http://www.w3.org/2000/svg" xmlns:xlink="http://www.w3.org/1999/xlink">
    <!-- Generator: Sketch 58 (84663) - https://sketch.com -->
    <title>np_think_2512866_4593B3</title>
    <desc>Created with Sketch.</desc>
    <g id="Hugo" stroke="none" stroke-width="1" fill="none" fill-rule="evenodd">
        <g id="np_think_2512866_4593B3" fill-rule="nonzero">
            <path d="M168.564189,0.111631867 C164.040159,0.544980185 160.573142,4.30644323 160.521223,8.84817821 L159.55052,42.4067579 C159.429181,47.3124121 163.31201,51.3682854 168.217398,51.4898728 C173.122786,51.6114603 177.178926,47.7283832 177.300513,42.8229952 L178.271216,9.26441553 C178.357885,6.71631535 177.35252,4.23761764 175.497779,2.48702462 C173.625688,0.73629848 171.112289,-0.130389282 168.564189,0.112253116 L168.564189,0.111631867 Z M65.947044,49.0616739 C62.4802486,49.3043518 59.464303,51.5404159 58.2506473,54.799359 C57.0199515,58.0408182 57.8172989,61.7156436 60.2613664,64.1771238 L74.960579,79.5699173 C76.5033196,81.5633302 78.808733,82.8113766 81.3221764,82.9847053 C83.8356197,83.1753801 86.2970555,82.2913462 88.1168735,80.5579263 C89.9369577,78.8072001 90.9249667,76.3804212 90.855653,73.8670666 C90.7689842,71.3536233 89.6422635,68.9960249 87.7182087,67.3670193 L73.1578898,51.9742258 C71.3378055,49.946156 68.6684729,48.8714383 65.9469553,49.0621176 L65.947044,49.0616739 Z M271.73602,49.0616739 C269.39595,49.1830128 267.211991,50.2403621 265.63446,51.973782 L251.074141,67.3665756 C249.150087,68.9959805 248.023362,71.3534014 247.936697,73.8666228 C247.867361,76.3800662 248.855392,78.8068895 250.675477,80.5574825 C252.495561,82.2908581 254.956952,83.1748964 257.470174,82.9842615 C259.983617,82.810924 262.288853,81.5628865 263.831771,79.5694736 L278.530984,64.17668 C281.113741,61.5765724 281.841757,57.6415765 280.333717,54.2788404 C278.825678,50.9333662 275.410757,48.8531114 271.736065,49.0612301 L271.73602,49.0616739 Z M169.398438,66.2569792 C114.275836,66.2569792 69.8298549,111.586023 69.8298549,167.072499 C69.8298549,190.698627 79.7969195,210.407331 89.9370465,227.533412 C106.022977,254.713088 107.964383,268.701413 107.964383,275.791204 C107.964383,279.344664 106.924322,280.263314 107.409695,285.220887 C107.652373,287.699629 110.373811,292.483741 113.511255,293.957434 C116.6487,295.431127 118.572666,295.345121 120.58374,295.345121 L218.208699,295.345121 C220.219418,295.345121 222.143517,295.430821 225.281184,293.957434 C228.41885,292.484047 231.140012,287.699674 231.382743,285.220887 C231.868117,280.263314 230.828056,279.344752 230.828056,275.791204 C230.828056,268.701413 232.769462,254.713088 248.855392,227.533412 C258.995963,210.407331 268.962584,190.698627 268.962584,167.072499 C268.962584,111.586023 224.516603,66.2569792 169.394001,66.2569792 L169.398438,66.2569792 Z M169.398438,84.0069717 C214.847294,84.0069717 251.217029,120.997512 251.217029,167.072499 C251.217029,185.671829 243.260595,202.20861 233.605486,218.520853 C216.444793,247.538097 213.082057,265.252146 213.082057,275.791204 C213.082057,277.0219 213.186063,276.53657 213.220729,277.593937 L125.580141,277.593937 C125.614807,276.53657 125.718813,277.0219 125.718813,275.791204 C125.718813,265.252146 122.356032,247.536766 105.195384,218.520853 C95.5402754,202.209497 87.5838412,185.67316 87.5838412,167.072499 C87.5838412,120.997956 123.95047,84.0069717 169.402432,84.0069717 L169.398438,84.0069717 Z M8.95625542,132.819451 C4.05060123,132.94079 0.167790354,136.996956 0.289377803,141.902566 C0.410965252,146.808176 4.46688293,150.691031 9.37249275,150.569444 L43.2084161,151.540147 C48.1140703,151.661485 52.1699436,147.778657 52.291531,142.873269 C52.4131185,137.967881 48.5300413,133.911741 43.6246534,133.790154 L9.92718001,132.819451 C9.59783334,132.802118 9.28582841,132.802118 8.9564773,132.819451 L8.95625542,132.819451 Z M328.873246,132.819451 L295.175773,133.790154 C290.270119,133.911493 286.387308,137.967659 286.508895,142.873269 C286.630483,147.778879 290.686401,151.661734 295.59201,151.540147 L329.427934,150.569444 C334.333588,150.413439 338.181786,146.322625 338.025586,141.417104 C337.869386,136.511583 333.778767,132.663251 328.873246,132.819451 L328.873246,132.819451 Z M121.695333,308.517753 C119.337912,308.639092 117.136691,309.696441 115.559161,311.464518 C113.981763,313.215244 113.184389,315.520657 113.305755,317.878034 C113.42712,320.23541 114.484443,322.436676 116.25252,324.014206 C118.003246,325.591604 120.308659,326.388978 122.666036,326.267612 L216.128622,326.267612 C218.503393,326.302278 220.791545,325.383574 222.490219,323.719512 C224.171631,322.038099 225.124984,319.767387 225.124984,317.392527 C225.124984,315.017667 224.171631,312.74691 222.490219,311.065542 C220.7915,309.40148 218.503393,308.482785 216.128622,308.517442 L122.666036,308.517442 C122.336689,308.500109 122.024684,308.500109 121.695333,308.517442 L121.695333,308.517753 Z M130.570329,340.689614 C128.212909,340.810953 126.011688,341.868302 124.434157,343.636379 C122.85676,345.387105 122.059386,347.692519 122.180751,350.049895 C122.302117,352.407272 123.359439,354.608537 125.127516,356.186068 C126.878242,357.763465 129.183656,358.560839 131.541032,358.439474 L207.253625,358.439474 C209.628397,358.474139 211.916549,357.555435 213.615223,355.891373 C215.296635,354.209961 216.249987,351.939249 216.249987,349.564389 C216.249987,347.189528 215.296635,344.918772 213.615223,343.237404 C211.916504,341.573342 209.628397,340.654647 207.253625,340.689304 L131.541032,340.689304 C131.211686,340.671971 130.899681,340.671971 130.570329,340.689304 L130.570329,340.689614 Z M155.115019,372.999926 C152.757598,373.121265 150.556377,374.178614 148.978847,375.946691 C147.401449,377.697417 146.604075,380.00283 146.725441,382.360207 C146.846806,384.717583 147.904129,386.918849 149.672206,388.496379 C151.422932,390.073777 153.728345,390.871151 156.085722,390.749785 L182.710711,390.749785 C185.085482,390.784451 187.373634,389.865747 189.072308,388.201685 C190.75372,386.520272 191.707073,384.24956 191.707073,381.8747 C191.707073,379.49984 190.75372,377.229083 189.072308,375.547715 C187.373589,373.883653 185.085482,372.964958 182.710711,372.999615 L156.085722,372.999615 C155.756375,372.982282 155.44437,372.982282 155.115019,372.999615 L155.115019,372.999926 Z" id="Shape" fill="#4593B3"></path>
            <path d="M204.898423,138.921011 C202.558353,139.04235 200.374394,140.099699 198.796863,141.833119 L157.056868,187.455038 L140.832488,174.142543 C139.029754,172.547795 136.637676,171.750466 134.245465,171.941145 C131.836037,172.13182 129.599849,173.293206 128.074681,175.165254 C126.549512,177.037301 125.838581,179.446729 126.133275,181.838807 C126.427952,184.248235 127.676016,186.414755 129.60007,187.871142 L152.203799,206.592059 C155.843923,209.608182 161.217245,209.244174 164.406918,205.760028 L211.972461,153.89455 C214.503211,151.242435 215.144562,147.290221 213.567209,143.979404 C212.007162,140.668631 208.557717,138.657956 204.900331,138.917994 L204.898423,138.921011 Z" id="Path" fill="#F39200"></path>
        </g>
    </g>
</svg>